<svg width="104" height="104" viewBox="0 0 104 104" fill="none" xmlns="http://www.w3.org/2000/svg">
<circle cx="52" cy="52" r="52" fill="#016FD0"/>
<path d="M81.3658 59.2441H78.7982C78.249 59.2441 77.8371 58.8976 77.8371 58.3635C77.8371 57.8438 78.2352 57.4974 78.7982 57.4974H83.439L84.5237 55H78.7844C76.4091 55 75.0498 56.4724 75.0498 58.4501C75.0498 60.5144 76.3679 61.727 78.4137 61.727H80.9813C81.5442 61.727 81.9287 62.0735 81.9287 62.6076C81.9287 63.1417 81.5442 63.4882 80.9813 63.4882H75.3793V65.9855H80.9813C83.3292 65.9855 84.7159 64.542 84.7159 62.4199C84.7297 60.4278 83.5077 59.2441 81.3658 59.2441Z" fill="white"/>
<path d="M63.5987 58.5649C63.5987 56.4573 62.1708 55.0137 59.8641 55.0137H53.8228V65.9993H56.61V62.145H57.626L60.8115 65.9848H64.2715L60.8115 62.015C62.5552 61.6397 63.5987 60.2828 63.5987 58.5649ZM59.5346 59.7198H56.61V57.5111H59.5346C60.3721 57.5111 60.784 58.0308 60.784 58.6226C60.7977 59.2289 60.3721 59.7198 59.5346 59.7198Z" fill="white"/>
<path d="M65.0542 65.9993H73.8965V63.5019H67.8415V61.7408H73.7455V59.2434H67.8415V57.5111H73.8965V55.0137H65.0542V65.9993Z" fill="white"/>
<path d="M48.9071 55.0137H42.7971V65.9993H45.5844V62.4192H48.8247C51.1863 62.4192 52.6418 60.8457 52.6418 58.7237C52.628 56.515 51.2001 55.0137 48.9071 55.0137ZM48.5776 59.9219H45.5844V57.5111H48.5776C49.4151 57.5111 49.827 58.0597 49.827 58.7381C49.827 59.3877 49.4014 59.9219 48.5776 59.9219Z" fill="white"/>
<path d="M91.636 59.2441H89.0685C88.5192 59.2441 88.1211 58.8976 88.1211 58.3635C88.1211 57.8438 88.5192 57.4974 89.0685 57.4974H93.7093L94.794 55H89.0547C86.6794 55 85.3201 56.4724 85.3201 58.4501C85.3201 60.5144 86.6382 61.727 88.684 61.727H91.2516C91.8145 61.727 92.2127 62.0735 92.2127 62.6076C92.2127 63.1417 91.8283 63.4882 91.2516 63.4882H85.6496V65.9855H91.2653C93.6132 65.9855 95 64.542 95 62.4199C94.9862 60.4278 93.7642 59.2441 91.636 59.2441Z" fill="white"/>
<path d="M20.3345 65.9993H29.163V63.502H23.1217V61.7408H29.012V59.2434H23.1217V57.5112H29.163V55.0138H20.3345V65.9993Z" fill="white"/>
<path d="M42.2756 55.0137H38.7331L36.0145 58.3195L33.2959 55.0137H29.6574L34.2571 60.4415L29.5613 65.9993H33.1174L35.9596 62.5058L38.8155 65.9993H42.4541L37.7446 60.3838L42.2756 55.0137Z" fill="white"/>
<path d="M57.9556 50H59.345H60.7482V44.4928V39H59.3588H57.9556V44.4928V50Z" fill="white"/>
<path d="M56.4973 42.5558C56.4973 40.4455 55.0528 39 52.7554 39H46.7024V50H49.495V46.1406H50.5131L53.6909 49.9855H57.1577L53.6909 46.0105C55.4518 45.6347 56.4973 44.276 56.4973 42.5558ZM52.4253 43.7122H49.495V41.5007H52.4253C53.2644 41.5007 53.6771 42.021 53.6771 42.6137C53.6771 43.2208 53.2644 43.7122 52.4253 43.7122Z" fill="white"/>
<path d="M65.0268 44.594V44.3916C65.0268 42.7582 65.8935 41.5874 67.6819 41.5874H70.7909V39H67.448C63.995 39 62.2341 41.3272 62.2341 44.3916V44.6084C62.2341 48.0197 64.2426 50 67.3104 50H68.2734L69.3877 47.4993H67.7369C66.0723 47.4993 65.0268 46.502 65.0268 44.594Z" fill="white"/>
<path d="M11.6223 39L7 50H10.0816L10.962 47.774H15.8044L16.6986 50H19.849L15.2404 39H11.6223ZM11.9112 45.3456L13.3695 41.6741L14.8414 45.3456H11.9112Z" fill="white"/>
<path d="M27.1677 45.9238L24.774 39H20.3718V50H23.1232V42.0788L25.8884 50H28.3784L31.1435 42.0788V50H33.8949V39H29.5477L27.1677 45.9238Z" fill="white"/>
<path d="M36.0271 50H44.8728V47.4993H38.8198V45.7359H44.7215V43.2352H38.8198V41.5007H44.8728V39H36.0271V50Z" fill="white"/>
<path d="M74.1887 39L69.5664 50H72.648L73.5284 47.774H78.3708L79.265 50H82.4154L77.8068 39H74.1887ZM74.4914 45.3456L75.9496 41.6741L77.4079 45.3456H74.4914Z" fill="white"/>
<path d="M90.7383 45.707L86.4737 39H82.9519V50H85.7308V43.0329L90.1193 50H93.5035V39H90.7383V45.707Z" fill="white"/>
 
<metadata><rdf:RDF xmlns:rdf="http://www.w3.org/1999/02/22-rdf-syntax-ns#" xmlns:schema="http://schema.org/">
 <rdf:Description rdf:about='' xmlns:tiff="http://ns.adobe.com/tiff/1.0/">
  <tiff:Copyright>
   <rdf:Alt>
    <rdf:li xml:lang="x-default">© Copyright 2022 Corefy, Inc. All rights reserved.</rdf:li>
   </rdf:Alt>
  </tiff:Copyright>
 </rdf:Description>
</rdf:RDF></metadata></svg>
