<svg width="80" height="80" viewBox="0 0 80 80" fill="none" xmlns="http://www.w3.org/2000/svg">
<circle cx="40" cy="40" r="40" fill="#191919"/>
<path d="M23.6476 32.8363C23.0287 33.5794 22.0386 34.1656 21.0485 34.0818C20.9247 33.0771 21.4095 32.0095 21.9767 31.3501C22.5956 30.5861 23.6785 30.0419 24.5552 30C24.6583 31.0466 24.2561 32.0723 23.6476 32.8363ZM24.5448 34.2807C23.1112 34.197 21.8839 35.1075 21.2032 35.1075C20.5122 35.1075 19.4705 34.3225 18.336 34.3435C16.8612 34.3644 15.4894 35.2122 14.7365 36.5623C13.1895 39.2626 14.3343 43.2607 15.8298 45.4586C16.5621 46.5471 17.4387 47.7402 18.5939 47.6984C19.6871 47.6565 20.1203 46.9762 21.4404 46.9762C22.7709 46.9762 23.1525 47.6984 24.3076 47.6774C25.504 47.6565 26.2569 46.589 26.9892 45.5005C27.8246 44.2655 28.165 43.0618 28.1856 42.999C28.165 42.9781 25.8753 42.0885 25.8547 39.4091C25.8341 37.1694 27.6596 36.1018 27.7421 36.039C26.7107 34.49 25.1018 34.3225 24.5448 34.2807ZM32.8267 31.2455V47.5623H35.3226V41.9838H38.7777C41.9337 41.9838 44.1512 39.7859 44.1512 36.6042C44.1512 33.4225 41.975 31.2455 38.8602 31.2455H32.8267ZM35.3226 33.3806H38.2002C40.366 33.3806 41.6037 34.5528 41.6037 36.6147C41.6037 38.6765 40.366 39.8592 38.1898 39.8592H35.3226V33.3806ZM48.7098 47.6879C50.2775 47.6879 51.7317 46.882 52.3918 45.6051H52.4434V47.5623H54.7536V39.4405C54.7536 37.0856 52.8972 35.568 50.0403 35.568C47.3897 35.568 45.4301 37.1066 45.3579 39.2207H47.6062C47.7919 38.216 48.7098 37.5566 49.9681 37.5566C51.4945 37.5566 52.3505 38.2788 52.3505 39.608V40.5081L49.2358 40.6965C46.3377 40.8744 44.77 42.078 44.77 44.1713C44.77 46.2854 46.3892 47.6879 48.7098 47.6879ZM49.3802 45.7517C48.0497 45.7517 47.204 45.1028 47.204 44.1085C47.204 43.0828 48.0188 42.4862 49.5762 42.392L52.3505 42.2141V43.1351C52.3505 44.6632 51.0716 45.7517 49.3802 45.7517ZM57.8374 52C60.2714 52 61.4163 51.058 62.4167 48.2008L66.8 35.725H64.2628L61.3234 45.3644H61.2719L58.3325 35.725H55.7231L59.9517 47.6042L59.7248 48.3264C59.3432 49.5509 58.7244 50.0219 57.6208 50.0219C57.4249 50.0219 57.0433 50.0009 56.8886 49.98V51.9372C57.0329 51.9791 57.6518 52 57.8374 52Z" fill="white"/>
 
<metadata><rdf:RDF xmlns:rdf="http://www.w3.org/1999/02/22-rdf-syntax-ns#" xmlns:schema="http://schema.org/">
 <rdf:Description rdf:about='' xmlns:tiff="http://ns.adobe.com/tiff/1.0/">
  <tiff:Copyright>
   <rdf:Alt>
    <rdf:li xml:lang="x-default">© Copyright 2022 Corefy, Inc. All rights reserved.</rdf:li>
   </rdf:Alt>
  </tiff:Copyright>
 </rdf:Description>
</rdf:RDF></metadata></svg>
