<svg width="80" height="80" viewBox="0 0 80 80" fill="none" xmlns="http://www.w3.org/2000/svg">
<path d="M78.8019 49.6765C73.4589 71.105 51.7531 84.1461 30.3197 78.8024C8.89518 73.46 -4.14732 51.7552 1.19819 30.3279C6.53871 8.8969 28.2445 -4.14546 49.6716 1.19698C71.1037 6.53943 84.1449 28.2467 78.8019 49.6765Z" fill="#F7931A"/>
<path d="M54.1431 36.0807C54.772 31.8777 51.5715 29.6182 47.1952 28.111L48.6148 22.4174L45.1488 21.5537L43.7667 27.0972C42.8555 26.8702 41.9196 26.656 40.9897 26.4437L42.3816 20.8637L38.9176 20L37.497 25.6916C36.7428 25.5198 36.0024 25.35 35.2837 25.1714L35.2876 25.1536L30.5076 23.9602L29.5856 27.6618C29.5856 27.6618 32.1572 28.2511 32.1029 28.2876C33.5067 28.6381 33.7604 29.5669 33.718 30.3033L32.101 36.7895C32.1977 36.8142 32.3231 36.8497 32.4613 36.905C32.3458 36.8763 32.2224 36.8448 32.095 36.8142L29.8284 45.9004C29.6566 46.3268 29.2213 46.9664 28.24 46.7236C28.2746 46.7739 25.7207 46.0948 25.7207 46.0948L24 50.0619L28.5105 51.1862C29.3496 51.3965 30.172 51.6166 30.9815 51.8239L29.5471 57.5826L33.0092 58.4463L34.4298 52.7488C35.3755 53.0055 36.2936 53.2424 37.1919 53.4654L35.7763 59.1363L39.2424 60L40.6768 54.2522C46.5871 55.3705 51.0315 54.9194 52.9022 49.5743C54.4097 45.2706 52.8272 42.788 49.7175 41.1692C51.9822 40.647 53.688 39.1575 54.1431 36.0807ZM46.2238 47.1846C45.1527 51.4883 37.9057 49.1617 35.5562 48.5783L37.4595 40.9491C39.809 41.5354 47.3433 42.6962 46.2238 47.1846ZM47.2959 36.0186C46.3186 39.9334 40.2868 37.9444 38.3302 37.4568L40.0558 30.5372C42.0124 31.0248 48.3137 31.935 47.2959 36.0186Z" fill="white"/>
 
<metadata><rdf:RDF xmlns:rdf="http://www.w3.org/1999/02/22-rdf-syntax-ns#" xmlns:schema="http://schema.org/">
 <rdf:Description rdf:about='' xmlns:tiff="http://ns.adobe.com/tiff/1.0/">
  <tiff:Copyright>
   <rdf:Alt>
    <rdf:li xml:lang="x-default">© Copyright 2022 Corefy, Inc. All rights reserved.</rdf:li>
   </rdf:Alt>
  </tiff:Copyright>
 </rdf:Description>
</rdf:RDF></metadata></svg>
