<svg width="80" height="80" viewBox="0 0 80 80" fill="none" xmlns="http://www.w3.org/2000/svg">
<circle cx="40" cy="40" r="40" fill="#000268"/>
<path fill-rule="evenodd" clip-rule="evenodd" d="M8 30.938C8 28.211 10.2222 26 12.9619 26H67.0381C69.779 26 72 28.211 72 30.938V48.5845C72 51.3099 69.779 53.5213 67.0381 53.5213H12.9619C10.2222 53.5213 8 51.3099 8 48.5845V30.938Z" fill="#000268"/>
<path fill-rule="evenodd" clip-rule="evenodd" d="M10.0361 31.1071V48.4173C10.0361 50.121 11.4251 51.5029 13.1384 51.5029H41.4695V28.0215H13.1384C11.4251 28.0215 10.0361 29.4033 10.0361 31.1071ZM48.7897 39.6757C48.7897 40.7778 48.2446 41.5353 47.3421 41.5353C46.5448 41.5353 45.8802 40.7778 45.8802 39.7685C45.8802 38.7326 46.4647 37.9624 47.3421 37.9624C48.2725 37.9624 48.7897 38.7593 48.7897 39.6757ZM43.4907 45.9967H45.8802V42.2381H45.9069C46.3596 43.0617 47.2632 43.3669 48.0996 43.3669C50.1576 43.3669 51.2597 41.6676 51.2597 39.6223C51.2597 37.9496 50.211 36.1291 48.298 36.1291C47.2099 36.1291 46.2006 36.5678 45.7212 37.5376H45.6945V36.2897H43.4907V45.9967ZM54.5234 41.0165C54.5234 40.3531 55.1601 40.1017 55.9713 40.1017C56.3295 40.1017 56.6754 40.1268 56.9806 40.1411C56.9806 40.9508 56.4096 41.7743 55.5059 41.7743C54.9481 41.7743 54.5234 41.4958 54.5234 41.0165ZM59.3434 43.208C59.2378 42.6641 59.2111 42.1186 59.2111 41.5747V38.9983C59.2111 36.887 57.6846 36.1291 55.9179 36.1291C54.8959 36.1291 54.0062 36.2753 53.1559 36.6212L53.1965 38.2421C53.8583 37.8695 54.6301 37.7233 55.4003 37.7233C56.2622 37.7233 56.9663 37.9763 56.9806 38.9195C56.6754 38.8661 56.2494 38.8254 55.8645 38.8254C54.5907 38.8254 52.2928 39.0784 52.2928 41.1894C52.2928 42.6908 53.5141 43.3669 54.882 43.3669C55.8645 43.3669 56.5291 42.9832 57.0734 42.1186H57.1001C57.1001 42.4784 57.1392 42.8354 57.1535 43.208H59.3434ZM60.4188 45.9967C60.9105 46.1035 61.4014 46.1573 61.9058 46.1573C64.0973 46.1573 64.6144 44.4702 65.2918 42.7302L67.8291 36.2897H65.4381L64.0172 40.8045H63.9905L62.5031 36.2897H59.9279L62.7294 43.3669C62.5565 43.9782 62.1054 44.324 61.5205 44.324C61.1874 44.324 60.8965 44.2834 60.5774 44.1778L60.4188 45.9967Z" fill="white"/>
<path fill-rule="evenodd" clip-rule="evenodd" d="M15.8744 39.6893C15.8744 38.7461 16.3398 37.962 17.2295 37.962C18.3049 37.962 18.756 38.825 18.756 39.5952C18.756 40.6579 18.0786 41.3747 17.2295 41.3747C16.5127 41.3747 15.8744 40.7647 15.8744 39.6893ZM21.067 36.2893H18.9022V37.5372H18.8771C18.371 36.687 17.547 36.1287 16.5254 36.1287C14.3746 36.1287 13.4048 37.6707 13.4048 39.7287C13.4048 41.7739 14.587 43.2076 16.4844 43.2076C17.4419 43.2076 18.2388 42.835 18.8093 42.0254H18.836V42.3979C18.836 43.7518 18.0925 44.4025 16.7123 44.4025C15.7158 44.4025 15.1042 44.1901 14.3746 43.8319L14.2551 45.7182C14.8117 45.9178 15.7548 46.1569 16.898 46.1569C19.6867 46.1569 21.067 45.24 21.067 42.3979V36.2893ZM25.1068 33.4077H22.7161V35.1605H25.1068V33.4077ZM22.7173 43.2076H25.1068V36.2893H22.7173V43.2076ZM31.7625 36.2088C31.5234 36.1698 31.231 36.1287 30.9529 36.1287C29.9169 36.1287 29.3196 36.687 28.9076 37.5639H28.8809V36.2893H26.7034V43.2076H29.0933V40.2869C29.0933 38.9318 29.7185 38.1222 30.8333 38.1222C31.113 38.1222 31.3772 38.1222 31.643 38.2007L31.7625 36.2088ZM35.8781 41.6939C34.776 41.6939 34.325 40.7774 34.325 39.7554C34.325 38.7194 34.776 37.803 35.8781 37.803C36.9814 37.803 37.4329 38.7194 37.4329 39.7554C37.4329 40.7774 36.9814 41.6939 35.8781 41.6939ZM35.8781 43.3665C38.1624 43.3665 39.9025 42.0397 39.9025 39.7554C39.9025 37.4572 38.1624 36.1287 35.8781 36.1287C33.5942 36.1287 31.8554 37.4572 31.8554 39.7554C31.8554 42.0397 33.5942 43.3665 35.8781 43.3665Z" fill="#FF0007"/>
 
<metadata><rdf:RDF xmlns:rdf="http://www.w3.org/1999/02/22-rdf-syntax-ns#" xmlns:schema="http://schema.org/">
 <rdf:Description rdf:about='' xmlns:tiff="http://ns.adobe.com/tiff/1.0/">
  <tiff:Copyright>
   <rdf:Alt>
    <rdf:li xml:lang="x-default">© Copyright 2022 Corefy, Inc. All rights reserved.</rdf:li>
   </rdf:Alt>
  </tiff:Copyright>
 </rdf:Description>
</rdf:RDF></metadata></svg>
