<svg width="80" height="80" viewBox="0 0 80 80" fill="none" xmlns="http://www.w3.org/2000/svg">
<path d="M40 80C62.0914 80 80 62.0914 80 40C80 17.9086 62.0914 0 40 0C17.9086 0 0 17.9086 0 40C0 62.0914 17.9086 80 40 80Z" fill="white"/>
<path d="M79.5 40C79.5 61.8153 61.8153 79.5 40 79.5C18.1848 79.5 0.5 61.8153 0.5 40C0.5 18.1848 18.1848 0.5 40 0.5C61.8153 0.5 79.5 18.1848 79.5 40Z" stroke="#5F6368" stroke-opacity="0.3"/>
<path d="M38.2013 40.7482V47.1969H36.1555V31.2713H41.5814C42.229 31.2578 42.873 31.3727 43.476 31.6093C44.079 31.8459 44.6292 32.1997 45.0948 32.65C45.5652 33.0731 45.9395 33.5919 46.1926 34.1716C46.4458 34.7513 46.5719 35.3785 46.5625 36.011C46.576 36.6469 46.4518 37.2782 46.1984 37.8616C45.9451 38.445 45.5687 38.9668 45.0948 39.3911C44.1461 40.2958 42.9749 40.7477 41.5814 40.7469H38.2013V40.7482ZM38.2013 33.232V38.7913H41.6322C42.0083 38.8024 42.3826 38.735 42.7312 38.5932C43.0797 38.4514 43.3949 38.2384 43.6564 37.9679C43.9166 37.7149 44.1234 37.4124 44.2646 37.0781C44.4058 36.7439 44.4786 36.3847 44.4786 36.0218C44.4786 35.659 44.4058 35.2998 44.2646 34.9655C44.1234 34.6312 43.9166 34.3287 43.6564 34.0758C43.3982 33.7995 43.0841 33.5813 42.7351 33.4356C42.3862 33.29 42.0102 33.2201 41.6322 33.2307H38.2013V33.232Z" fill="#5F6368"/>
<path d="M51.2766 35.9448C52.7888 35.9448 53.9824 36.3489 54.8574 37.1571C55.7325 37.9652 56.1697 39.0733 56.1688 40.4812V47.1968H54.2119V45.6847H54.123C53.2759 46.93 52.1492 47.5526 50.7429 47.5526C49.5426 47.5526 48.5383 47.1968 47.7301 46.4852C47.3423 46.1586 47.0322 45.7496 46.8225 45.288C46.6128 44.8263 46.5087 44.3237 46.5179 43.8168C46.5179 42.6892 46.944 41.7926 47.7962 41.1267C48.6484 40.4609 49.7861 40.1271 51.2093 40.1254C52.4241 40.1254 53.4245 40.3478 54.2107 40.7925V40.3249C54.213 39.9793 54.1384 39.6375 53.9922 39.3243C53.846 39.0111 53.632 38.7344 53.3657 38.5142C52.8247 38.0261 52.1196 37.7597 51.391 37.7683C50.2482 37.7683 49.3439 38.2503 48.6781 39.2143L46.8762 38.0796C47.8674 36.6564 49.3342 35.9448 51.2766 35.9448ZM48.6298 43.8612C48.6284 44.1216 48.6893 44.3785 48.8073 44.6106C48.9253 44.8427 49.0971 45.0432 49.3083 45.1955C49.7608 45.5514 50.3224 45.7399 50.898 45.7292C51.7613 45.7277 52.5888 45.3841 53.1992 44.7736C53.8769 44.1357 54.2157 43.3873 54.2157 42.5283C53.5779 42.02 52.6884 41.7659 51.5473 41.7659C50.7163 41.7659 50.0233 41.9662 49.4684 42.3669C48.9081 42.7735 48.6298 43.2678 48.6298 43.8612Z" fill="#5F6368"/>
<path d="M67.4017 36.3005L60.5705 51.9999H58.4586L60.9936 46.5067L56.5017 36.3005H58.7254L61.972 44.128H62.0165L65.1742 36.3005H67.4017Z" fill="#5F6368"/>
<path d="M29.934 39.3579C29.9348 38.7344 29.8821 38.112 29.7764 37.4976H21.1484V41.0212H26.0902C25.989 41.584 25.775 42.1204 25.461 42.5983C25.1469 43.0761 24.7394 43.4854 24.2629 43.8015V46.0887H27.2122C28.9391 44.4965 29.934 42.1419 29.934 39.3579Z" fill="#4285F4"/>
<path d="M21.1485 48.2986C23.6174 48.2986 25.6963 47.4879 27.2122 46.0901L24.263 43.8029C23.4421 44.3595 22.3849 44.6771 21.1485 44.6771C18.7621 44.6771 16.7366 43.0684 16.0123 40.9006H12.9741V43.2578C13.7356 44.773 14.9033 46.0469 16.3467 46.937C17.7902 47.8271 19.4526 48.2985 21.1485 48.2986Z" fill="#34A853"/>
<path d="M16.0124 40.9004C15.6295 39.7645 15.6295 38.5343 16.0124 37.3984V35.0413H12.9742C12.3336 36.316 12 37.7228 12 39.1494C12 40.576 12.3336 41.9829 12.9742 43.2576L16.0124 40.9004Z" fill="#FBBC04"/>
<path d="M21.1485 33.6221C22.4532 33.6008 23.7139 34.0937 24.6581 34.9944L27.2694 32.3831C25.6136 30.8279 23.42 29.9741 21.1485 30.0006C19.4526 30.0007 17.7902 30.4721 16.3467 31.3622C14.9033 32.2524 13.7356 33.5262 12.9741 35.0414L16.0123 37.3986C16.7366 35.2308 18.7621 33.6221 21.1485 33.6221Z" fill="#EA4335"/>
 
<metadata><rdf:RDF xmlns:rdf="http://www.w3.org/1999/02/22-rdf-syntax-ns#" xmlns:schema="http://schema.org/">
 <rdf:Description rdf:about='' xmlns:tiff="http://ns.adobe.com/tiff/1.0/">
  <tiff:Copyright>
   <rdf:Alt>
    <rdf:li xml:lang="x-default">© Copyright 2022 Corefy, Inc. All rights reserved.</rdf:li>
   </rdf:Alt>
  </tiff:Copyright>
 </rdf:Description>
</rdf:RDF></metadata></svg>
