<svg width="80" height="80" viewBox="0 0 80 80" fill="none" xmlns="http://www.w3.org/2000/svg">
<circle cx="40" cy="40" r="40" fill="#1A1A1A"/>
<path d="M46.3403 50.2225H34.9119V29.7815H46.3403V50.2225Z" fill="#FF5F00"/>
<path d="M35.6441 40C35.6441 35.8535 37.5948 32.1598 40.6326 29.7795C38.4112 28.0389 35.6075 27 32.5606 27C25.3472 27 19.5 32.8202 19.5 40C19.5 47.1798 25.3472 53 32.5606 53C35.6075 53 38.4112 51.9611 40.6326 50.2205C37.5948 47.8402 35.6441 44.1465 35.6441 40Z" fill="#EB001B"/>
<path d="M61.7533 40C61.7533 47.1798 55.9061 53 48.6927 53C45.6458 53 42.8422 51.9611 40.6199 50.2205C43.6585 47.8402 45.6093 44.1465 45.6093 40C45.6093 35.8535 43.6585 32.1598 40.6199 29.7795C42.8422 28.0389 45.6458 27 48.6927 27C55.9061 27 61.7533 32.8202 61.7533 40Z" fill="#F79E1B"/>
 
<metadata><rdf:RDF xmlns:rdf="http://www.w3.org/1999/02/22-rdf-syntax-ns#" xmlns:schema="http://schema.org/">
 <rdf:Description rdf:about='' xmlns:tiff="http://ns.adobe.com/tiff/1.0/">
  <tiff:Copyright>
   <rdf:Alt>
    <rdf:li xml:lang="x-default">© Copyright 2022 Corefy, Inc. All rights reserved.</rdf:li>
   </rdf:Alt>
  </tiff:Copyright>
 </rdf:Description>
</rdf:RDF></metadata></svg>
