<svg width="96" height="96" viewBox="0 0 96 96" fill="none" xmlns="http://www.w3.org/2000/svg">
<path d="M94.5623 59.6118C88.1507 85.326 62.1037 100.975 36.3837 94.5629C10.6742 88.152 -4.97679 62.1063 1.43783 36.3935C7.84645 10.6763 33.8935 -4.97456 59.6059 1.43638C85.3244 7.84731 100.974 33.8961 94.5623 59.6118Z" fill="#003087"/>
<path d="M59.5809 39H54.3267C53.9675 39 53.6617 39.2614 53.6057 39.6161L51.4809 53.0889C51.4388 53.3548 51.6441 53.5957 51.9135 53.5957H54.6093C54.8606 53.5957 55.0753 53.4127 55.114 53.1643L55.7169 49.3446C55.7726 48.9897 56.0784 48.7285 56.4381 48.7285H58.1008C61.5615 48.7285 63.5588 47.0535 64.0809 43.7338C64.3159 42.2822 64.0904 41.1411 63.4105 40.3427C62.6633 39.4643 61.3388 39 59.5809 39ZM60.1874 43.9206C59.9002 45.8067 58.4599 45.8067 57.0664 45.8067H56.2742L56.8301 42.2853C56.8638 42.0727 57.0473 41.9159 57.2627 41.9159H57.6261C58.5745 41.9159 59.4706 41.9159 59.9323 42.4562C60.2084 42.7793 60.292 43.2584 60.1874 43.9206Z" fill="white"/>
<path d="M22.1057 39H16.8514C16.4923 39 16.1865 39.2614 16.1303 39.6161L14.0054 53.0889C13.9636 53.3548 14.1691 53.5957 14.4383 53.5957H16.9471C17.3063 53.5957 17.6121 53.3343 17.6683 52.9794L18.2416 49.3446C18.2976 48.9897 18.6034 48.7285 18.9626 48.7285H20.6253C24.0863 48.7285 26.0836 47.0535 26.6057 43.7338C26.8407 42.2822 26.6151 41.1411 25.9355 40.3427C25.1876 39.4643 23.8633 39 22.1057 39ZM22.7119 43.9206C22.4247 45.8067 20.9842 45.8067 19.5912 45.8067H18.7985L19.3544 42.2853C19.3881 42.0727 19.5714 41.9159 19.787 41.9159H20.1504C21.0988 41.9159 21.9947 41.9159 22.4564 42.4562C22.7327 42.7793 22.8163 43.2584 22.7119 43.9206Z" fill="white"/>
<path d="M37.81 43.8606H35.2944C35.079 43.8606 34.8955 44.0174 34.8617 44.2304L34.751 44.9339L34.5751 44.6794C34.03 43.888 32.8158 43.624 31.6032 43.624C28.8237 43.624 26.449 45.7304 25.9869 48.6851C25.7463 50.1587 26.0877 51.5673 26.9235 52.5501C27.6912 53.4534 28.7869 53.8293 30.0923 53.8293C32.3326 53.8293 33.5755 52.3898 33.5755 52.3898L33.463 53.0892C33.4208 53.3551 33.6262 53.596 33.8957 53.596H36.1615C36.5207 53.596 36.8262 53.3346 36.8824 52.9799L38.2429 44.3669C38.2844 44.1008 38.0792 43.8606 37.81 43.8606ZM34.3035 48.7578C34.0607 50.1955 32.9194 51.1604 31.4638 51.1604C30.7341 51.1604 30.1499 50.9257 29.7744 50.4815C29.4023 50.0408 29.2622 49.4134 29.3803 48.7144C29.6068 47.2897 30.7665 46.2934 32.1999 46.2934C32.9142 46.2934 33.4945 46.5305 33.8772 46.9787C34.2626 47.4305 34.414 48.0622 34.3035 48.7578Z" fill="white"/>
<path d="M75.2856 43.8606H72.77C72.5544 43.8606 72.3709 44.0174 72.3373 44.2304L72.2264 44.9339L72.0507 44.6794C71.5054 43.888 70.2914 43.624 69.0788 43.624C66.2991 43.624 63.9246 45.7304 63.4627 48.6851C63.2219 50.1587 63.5638 51.5673 64.3993 52.5501C65.167 53.4534 66.263 53.8293 67.5681 53.8293C69.8085 53.8293 71.0513 52.3898 71.0513 52.3898L70.9389 53.0892C70.8966 53.3551 71.1018 53.596 71.3715 53.596H73.6373C73.9965 53.596 74.3018 53.3346 74.3583 52.9799L75.7185 44.3669C75.7605 44.1008 75.5548 43.8606 75.2856 43.8606ZM71.7796 48.7578C71.5366 50.1955 70.3955 51.1604 68.9399 51.1604C68.2097 51.1604 67.626 50.9257 67.2503 50.4815C66.8784 50.0408 66.7381 49.4134 66.8562 48.7144C67.0829 47.2897 68.2421 46.2934 69.6755 46.2934C70.3896 46.2934 70.9698 46.5305 71.3531 46.9787C71.738 47.4305 71.8896 48.0622 71.7796 48.7578Z" fill="white"/>
<path d="M51.2105 43.8604H48.6816C48.4398 43.8604 48.2138 43.9805 48.0775 44.1803L44.5892 49.3182L43.1107 44.3813C43.0179 44.0722 42.7338 43.8604 42.4114 43.8604H39.9255C39.6254 43.8604 39.4143 44.1555 39.5108 44.4399L42.2955 52.6133L39.6764 56.3086C39.4707 56.5988 39.6783 57 40.0339 57H42.56C42.7997 57 43.0238 56.8826 43.16 56.6859L51.5704 44.548C51.7716 44.2575 51.5635 43.8604 51.2105 43.8604Z" fill="white"/>
<path d="M78.2512 39.3701L76.0945 53.0894C76.0527 53.3553 76.2579 53.596 76.5271 53.596H78.6961C79.0553 53.596 79.3611 53.3346 79.4175 52.9799L81.5438 39.507C81.5858 39.2411 81.3806 39.0005 81.1112 39.0005H78.6841C78.4682 39 78.2847 39.1571 78.2512 39.3701Z" fill="white"/>
 
<metadata><rdf:RDF xmlns:rdf="http://www.w3.org/1999/02/22-rdf-syntax-ns#" xmlns:schema="http://schema.org/">
 <rdf:Description rdf:about='' xmlns:tiff="http://ns.adobe.com/tiff/1.0/">
  <tiff:Copyright>
   <rdf:Alt>
    <rdf:li xml:lang="x-default">© Copyright 2022 Corefy, Inc. All rights reserved.</rdf:li>
   </rdf:Alt>
  </tiff:Copyright>
 </rdf:Description>
</rdf:RDF></metadata></svg>
