<svg width="104" height="104" viewBox="0 0 104 104" fill="none" xmlns="http://www.w3.org/2000/svg">
<circle cx="52" cy="52" r="52" fill="#A6E3FE"/>
<path d="M41.594 45.4553C42.0687 45.2462 42.5433 45.0832 43.0179 44.9809C43.89 40.8184 47.5786 37.6965 52 37.6965C56.4243 37.6965 60.1144 40.8229 60.985 44.9839C62.3421 45.2418 63.4649 45.7903 64.34 46.6071C64.3756 45.8081 64.3429 45.0387 64.248 44.3138C63.6889 38.0256 58.4132 33.0908 51.9807 33.0908C45.3583 33.0908 39.967 38.3369 39.6867 44.8949C39.6481 45.4612 39.6363 46.0512 39.657 46.6678C40.2132 46.1994 40.848 45.7784 41.594 45.4553Z" fill="#E3001B"/>
<path d="M59.1889 46.3877H44.4314C43.7209 46.3877 42.9853 46.5522 42.2274 46.8917C41.4962 47.2104 40.897 47.5958 40.4164 48.0568C39.5013 49.1568 39.0326 50.7651 39 52.882V64.4118C39.0326 66.5331 39.5013 68.14 40.4164 69.234C40.897 69.7024 41.4962 70.0878 42.2274 70.4095C42.9853 70.7415 43.7209 70.909 44.4314 70.909H59.1889C63.0007 70.8749 64.9392 68.7848 65 64.6534V52.6403C64.9392 48.503 63.0007 46.4203 59.1889 46.3877Z" fill="#E3001B"/>
 
<metadata><rdf:RDF xmlns:rdf="http://www.w3.org/1999/02/22-rdf-syntax-ns#" xmlns:schema="http://schema.org/">
 <rdf:Description rdf:about='' xmlns:tiff="http://ns.adobe.com/tiff/1.0/">
  <tiff:Copyright>
   <rdf:Alt>
    <rdf:li xml:lang="x-default">© Copyright 2022 Corefy, Inc. All rights reserved.</rdf:li>
   </rdf:Alt>
  </tiff:Copyright>
 </rdf:Description>
</rdf:RDF></metadata></svg>
