<svg width="80" height="80" viewBox="0 0 80 80" fill="none" xmlns="http://www.w3.org/2000/svg">
<circle cx="40" cy="40" r="40" fill="url(#paint0_linear)"/>
<path fill-rule="evenodd" clip-rule="evenodd" d="M50.4785 35.9345C51.5667 35.9345 52.4487 35.0539 52.4487 33.968C52.4487 32.8814 51.5667 32 50.4785 32C49.3916 32 48.51 32.8814 48.51 33.968C48.51 35.0539 49.3916 35.9345 50.4785 35.9345ZM35.3895 36.9965C35.3006 37.2196 34.6607 39.025 33.1132 40.8961V32.8954L28.99 33.7094V48.2116H33.1132V43.7288C34.3074 45.5179 34.8971 48.2116 34.8971 48.2116H39.836C39.3474 46.1829 37.2104 42.4423 37.2104 42.4423C39.1284 40.0134 39.9708 37.4253 40.1048 36.9965H35.3895ZM46.2293 36.8451C42.5362 36.9635 40.6615 38.6186 40.6615 41.9086V48.2116H44.6905V43.0717C44.6905 41.1016 44.9488 40.2572 47.2892 40.1766V36.9028C46.8952 36.8193 46.2293 36.8451 46.2293 36.8451ZM22.0748 38.5934C21.5698 38.5602 20.4005 38.4847 20.4005 37.4333C20.4005 36.1645 22.0839 36.1645 22.7153 36.1645C23.8255 36.1645 25.2634 36.4922 26.2902 36.799C26.2902 36.799 26.8629 37.0007 27.3504 37.2073L27.3957 37.2196V33.7447L27.3335 33.7263C26.1217 33.3028 24.7126 32.8954 22.1002 32.8954C17.596 32.8954 16 35.5165 16 37.7619C16 39.0562 16.5554 42.1025 21.7139 42.4539C22.1512 42.4808 23.3118 42.5476 23.3118 43.6341C23.3118 44.5312 22.3616 45.0602 20.7636 45.0602C19.0122 45.0602 17.3134 44.6141 16.2815 44.191V47.7699C17.8263 48.1743 19.5676 48.3765 21.6085 48.3765C26.0127 48.3765 27.9852 45.8966 27.9852 43.4387C27.9852 40.6519 25.7779 38.8412 22.0748 38.5934ZM48.4813 48.2116H52.4777V37.0092H48.4813V48.2116ZM60.0029 33.6096V48.2116H64V32.8954L60.0029 33.6096ZM54.1706 33.6096L58.1639 32.8954V48.2116H54.1706V33.6096Z" fill="white"/>
<defs>
<linearGradient id="paint0_linear" x1="21.6352" y1="5.70567e-07" x2="63.4103" y2="80" gradientUnits="userSpaceOnUse">
<stop stop-color="#6B195F"/>
<stop offset="1" stop-color="#4C255B"/>
</linearGradient>
</defs>
 
<metadata><rdf:RDF xmlns:rdf="http://www.w3.org/1999/02/22-rdf-syntax-ns#" xmlns:schema="http://schema.org/">
 <rdf:Description rdf:about='' xmlns:tiff="http://ns.adobe.com/tiff/1.0/">
  <tiff:Copyright>
   <rdf:Alt>
    <rdf:li xml:lang="x-default">© Copyright 2022 Corefy, Inc. All rights reserved.</rdf:li>
   </rdf:Alt>
  </tiff:Copyright>
 </rdf:Description>
</rdf:RDF></metadata></svg>
