<svg width="80" height="80" viewBox="0 0 80 80" fill="none" xmlns="http://www.w3.org/2000/svg">
<circle cx="39.9995" cy="40" r="40" fill="#53AE94"/>
<path d="M40 16C53.2542 16 64 26.7458 64 40C64 53.2542 53.2538 64 40 64C26.7462 64 16 53.2571 16 40C16 26.7429 26.7443 16 40 16Z" fill="#53AE94"/>
<path d="M42.962 36.8021V33.2318H51.1263V27.792H28.8946V33.2318H37.0599V36.7992C30.4239 37.104 25.4343 38.4182 25.4343 39.9926C25.4343 41.567 30.4263 42.8813 37.0599 43.188V54.624H42.9639V43.187C49.5879 42.8813 54.5674 41.568 54.5674 39.995C54.5674 38.4221 49.5879 37.1088 42.9639 36.803L42.962 36.8021ZM42.9639 42.2184V42.2155C42.7974 42.2261 41.9415 42.2774 40.0359 42.2774C38.5124 42.2774 37.4406 42.2342 37.0628 42.2146V42.2194C31.2001 41.9597 26.8239 40.9387 26.8239 39.7171C26.8239 38.4955 31.2006 37.476 37.0628 37.2158V41.2022C37.4468 41.2286 38.545 41.2934 40.0609 41.2934C41.8815 41.2934 42.7969 41.2176 42.9649 41.2022V37.2158C48.8161 37.4765 53.1822 38.4984 53.1822 39.7157C53.1822 40.933 48.8142 41.9554 42.9649 42.216" fill="white"/>
 
<metadata><rdf:RDF xmlns:rdf="http://www.w3.org/1999/02/22-rdf-syntax-ns#" xmlns:schema="http://schema.org/">
 <rdf:Description rdf:about='' xmlns:tiff="http://ns.adobe.com/tiff/1.0/">
  <tiff:Copyright>
   <rdf:Alt>
    <rdf:li xml:lang="x-default">© Copyright 2022 Corefy, Inc. All rights reserved.</rdf:li>
   </rdf:Alt>
  </tiff:Copyright>
 </rdf:Description>
</rdf:RDF></metadata></svg>
