<svg width="80" height="80" viewBox="0 0 80 80" fill="none" xmlns="http://www.w3.org/2000/svg">
<circle cx="40" cy="40" r="40" fill="#00579F"/>
<path d="M35.8869 49.7404H31.4214L34.2144 32.3159H38.6797L35.8869 49.7404Z" fill="white"/>
<path d="M52.0753 32.7418C51.1945 32.3893 49.7974 32 48.07 32C43.6602 32 40.5548 34.3726 40.5358 37.7646C40.4992 40.2673 42.7591 41.6573 44.4494 42.4918C46.1771 43.3445 46.7644 43.901 46.7644 44.6611C46.7468 45.8284 45.3683 46.3665 44.0826 46.3665C42.2998 46.3665 41.3445 46.0891 39.8928 45.4396L39.3048 45.1612L38.6799 49.0727C39.7273 49.5541 41.6569 49.9813 43.6602 50C48.3457 50 51.3962 47.6641 51.4323 44.0494C51.4501 42.0658 50.2568 40.5459 47.684 39.304C46.1221 38.5067 45.1656 37.9691 45.1656 37.1534C45.184 36.4118 45.9746 35.6522 47.7377 35.6522C49.1894 35.615 50.256 35.9671 51.0641 36.3194L51.468 36.5044L52.0753 32.7418Z" fill="white"/>
<path d="M58.0102 43.5675C58.3779 42.5665 59.793 38.6923 59.793 38.6923C59.7745 38.7295 60.16 37.6728 60.3806 37.0241L60.6926 38.5255C60.6926 38.5255 61.5383 42.6963 61.7219 43.5675C61.024 43.5675 58.8922 43.5675 58.0102 43.5675ZM63.5223 32.3159H60.0682C59.0031 32.3159 58.1938 32.6308 57.7343 33.7616L51.1013 49.7401H55.7868C55.7868 49.7401 56.5582 47.5896 56.724 47.1264C57.2381 47.1264 61.7961 47.1264 62.4574 47.1264C62.5856 47.7381 62.9902 49.7401 62.9902 49.7401H67.1248L63.5223 32.3159Z" fill="white"/>
<path d="M27.692 32.3159L23.3187 44.1977L22.8409 41.788C22.0323 39.0074 19.4967 35.9864 16.667 34.4842L20.6727 49.7219H25.3949L32.4139 32.3159H27.692Z" fill="white"/>
<path d="M19.2581 32.3159H12.0735L12 32.668C17.6044 34.1139 21.3161 37.5994 22.8411 41.7887L21.2792 33.7806C21.0221 32.6677 20.2319 32.3526 19.2581 32.3159Z" fill="#FAA61A"/>
 
<metadata><rdf:RDF xmlns:rdf="http://www.w3.org/1999/02/22-rdf-syntax-ns#" xmlns:schema="http://schema.org/">
 <rdf:Description rdf:about='' xmlns:tiff="http://ns.adobe.com/tiff/1.0/">
  <tiff:Copyright>
   <rdf:Alt>
    <rdf:li xml:lang="x-default">© Copyright 2022 Corefy, Inc. All rights reserved.</rdf:li>
   </rdf:Alt>
  </tiff:Copyright>
 </rdf:Description>
</rdf:RDF></metadata></svg>
