<svg width="80" height="80" viewBox="0 0 80 80" fill="none" xmlns="http://www.w3.org/2000/svg">
<circle cx="39.9995" cy="40" r="40" fill="#52BE39"/>
<path d="M50.2558 30.6839C48.0219 24.292 41.2879 20 33.5 20C23.8499 20 16 26.7279 16 34.9999C16.0812 39.5829 18.3826 43.8411 22.172 46.4199L20.106 50.5519C19.8543 51.0435 20.0488 51.646 20.5404 51.8977C20.846 52.0542 21.2106 52.043 21.506 51.8678L26.798 48.8419C28.2337 49.349 29.7227 49.6898 31.236 49.8578C31.7846 49.921 32.2807 49.5276 32.3439 48.9789C32.3572 48.8643 32.3504 48.7482 32.3241 48.6359C32.1155 47.7726 32.0068 46.8881 32.0001 46C32.0001 38.282 39.626 32 49 32L49.294 32.014C49.619 32.0108 49.9243 31.8581 50.122 31.6C50.3137 31.3349 50.3637 30.9928 50.2558 30.6839Z" fill="white"/>
<path d="M26.9997 25.9993C25.3429 25.9993 23.9998 27.3424 23.9998 28.9993C23.9998 30.6561 25.3429 31.9992 26.9997 31.9992C28.6566 31.9992 29.9997 30.6561 29.9997 28.9993C29.9997 27.3424 28.6566 25.9993 26.9997 25.9993Z" fill="#52BE39"/>
<path d="M39 25.9993C37.3432 25.9993 36 27.3424 36 28.9993C36 30.6561 37.3432 31.9992 39 31.9992C40.6568 31.9992 42 30.6561 42 28.9993C42 27.3424 40.6568 25.9993 39 25.9993Z" fill="#52BE39"/>
<path d="M63.9996 46.0002C63.9996 39.3822 57.2717 34.0002 48.9997 34.0002C40.7277 34.0002 33.9998 39.3822 33.9998 46.0002C33.9998 52.6182 40.7277 58.0001 48.9997 58.0001C50.5514 57.9996 52.097 57.8034 53.5997 57.4162L58.5577 59.8942C59.0515 60.1414 59.6523 59.9415 59.8995 59.4476C60.0276 59.1919 60.0399 58.8936 59.9336 58.6282L58.5757 55.2282C61.8212 53.2607 63.8595 49.7928 63.9996 46.0002Z" fill="white"/>
<path d="M43.9995 40C42.8949 40 41.9995 40.8954 41.9995 42C41.9995 43.1045 42.8949 43.9999 43.9995 43.9999C45.104 43.9999 45.9994 43.1045 45.9994 42C45.9994 40.8954 45.104 40 43.9995 40Z" fill="#52BE39"/>
<path d="M53.9992 40C52.8947 40 51.9993 40.8954 51.9993 42C51.9993 43.1045 52.8947 43.9999 53.9992 43.9999C55.1038 43.9999 55.9992 43.1045 55.9992 42C55.9993 40.8954 55.1038 40 53.9992 40Z" fill="#52BE39"/>
 
<metadata><rdf:RDF xmlns:rdf="http://www.w3.org/1999/02/22-rdf-syntax-ns#" xmlns:schema="http://schema.org/">
 <rdf:Description rdf:about='' xmlns:tiff="http://ns.adobe.com/tiff/1.0/">
  <tiff:Copyright>
   <rdf:Alt>
    <rdf:li xml:lang="x-default">© Copyright 2022 Corefy, Inc. All rights reserved.</rdf:li>
   </rdf:Alt>
  </tiff:Copyright>
 </rdf:Description>
</rdf:RDF></metadata></svg>
