<?xml version="1.0" encoding="utf-8"?>
<!-- Generator: Adobe Illustrator 27.9.0, SVG Export Plug-In . SVG Version: 6.00 Build 0)  -->
<svg width="80" height="80" version="1.1" id="Warstwa_1" xmlns="http://www.w3.org/2000/svg" xmlns:xlink="http://www.w3.org/1999/xlink" x="0px" y="0px"
	 viewBox="0 0 80 80" style="enable-background:new 0 0 80 80;" xml:space="preserve">
<style type="text/css">
	.st0{fill:#333232;}
	.st1{fill:#FFFFFF;}
	.st2{fill:url(#SVGID_1_);}
	.st3{fill:url(#SVGID_00000100366427489234170220000011155856968902911419_);}
</style>
<circle class="st0" cx="40" cy="40" r="40"/>
<g>
	<path class="st1" d="M70,23.9H10c-2.2,0-4,1.8-4,4v24.2c0,2.2,1.8,4,4,4h60c2.2,0,4-1.8,4-4V27.9C74,25.7,72.2,23.9,70,23.9z"/>
	
		<linearGradient id="SVGID_1_" gradientUnits="userSpaceOnUse" x1="-909.8185" y1="569.6306" x2="-909.8185" y2="570.2668" gradientTransform="matrix(104.379 0 0 -48.71 95005.9453 27802.1562)">
		<stop  offset="0" style="stop-color:#5A5A5A"/>
		<stop  offset="0.146" style="stop-color:#484848"/>
		<stop  offset="0.52" style="stop-color:#212121"/>
		<stop  offset="0.817" style="stop-color:#080808"/>
		<stop  offset="1" style="stop-color:#000000"/>
	</linearGradient>
	<path class="st2" d="M70,24.3H10c-2,0-3.6,1.6-3.6,3.5l0,0v24.2c0,2,1.6,3.5,3.6,3.5c0,0,0,0,0,0h60c2,0,3.5-1.6,3.6-3.5
		c0,0,0,0,0,0V27.9C73.6,25.9,72,24.3,70,24.3z"/>
	<g transform="translate(15.781 5.232)">
		<g>
			<circle class="st1" cx="12.6" cy="26.1" r="3.6"/>
			<path class="st1" d="M19,23.7h4v22.5h-4V23.7z"/>
			<path class="st1" d="M26.5,31.5h4v14.8h-4V31.5z"/>
			<path class="st1" d="M8.6,31.4c-1.2,0-2.5,0.3-3.6,0.9v-8.5h-4v15.2c0,4.2,3.4,7.5,7.5,7.5s7.5-3.4,7.5-7.5
				C16.2,34.7,12.8,31.4,8.6,31.4C8.7,31.4,8.6,31.4,8.6,31.4z M8.6,42.5c-2,0-3.6-1.6-3.6-3.6c0-2,1.6-3.6,3.6-3.6
				c2,0,3.6,1.6,3.6,3.6C12.3,40.9,10.6,42.5,8.6,42.5L8.6,42.5L8.6,42.5z"/>
		</g>
		
			<linearGradient id="SVGID_00000035498436944389696730000008627939576803466402_" gradientUnits="userSpaceOnUse" x1="-980.9365" y1="492.5747" x2="-980.4819" y2="492.1196" gradientTransform="matrix(7.171703e-02 -11.0458 -11.0458 -7.171703e-02 5521.3125 -10771.2285)">
			<stop  offset="0" style="stop-color:#E52F08"/>
			<stop  offset="1" style="stop-color:#E94F96"/>
		</linearGradient>
		<circle style="fill:url(#SVGID_00000035498436944389696730000008627939576803466402_);" cx="12.6" cy="26.1" r="3.6"/>
		<path class="st1" d="M19,23.7h4v22.5h-4V23.7z"/>
		<path class="st1" d="M26.5,31.5h4v14.8h-4V31.5z"/>
		<path class="st1" d="M8.6,31.4c-1.2,0-2.5,0.3-3.6,0.9v-8.5h-4v15.2c0,4.2,3.4,7.5,7.5,7.5s7.5-3.4,7.5-7.5
			C16.2,34.7,12.8,31.4,8.6,31.4C8.7,31.4,8.6,31.4,8.6,31.4z M8.6,42.5c-2,0-3.6-1.6-3.6-3.6c0-2,1.6-3.6,3.6-3.6
			c2,0,3.6,1.6,3.6,3.6C12.3,40.9,10.6,42.5,8.6,42.5L8.6,42.5L8.6,42.5z"/>
	</g>
	<g transform="translate(.004 .005)">
		<path class="st1" d="M59.3,51.5h5.1l-6.1-7.9l5.6-6.8h-4.6l-5.5,6.9V29h-4v22.5h4v-7.9L59.3,51.5z"/>
	</g>
</g>
</svg>
