<?xml version="1.0" encoding="utf-8"?>
<!-- Generator: Adobe Illustrator 27.9.0, SVG Export Plug-In . SVG Version: 6.00 Build 0)  -->
<svg width="80" height="80" version="1.1" id="Warstwa_1" xmlns="http://www.w3.org/2000/svg" xmlns:xlink="http://www.w3.org/1999/xlink" x="0px" y="0px"
	 viewBox="0 0 271.7 271.9" style="enable-background:new 0 0 271.7 271.9;" xml:space="preserve">
<style type="text/css">
	.st0{fill:none;stroke:#8D7137;stroke-width:2;}
	.st1{fill:none;stroke:#7A6521;stroke-width:2;}
	.st2{fill:#F1C841;}
	.st3{fill:#020201;}
</style>
<g>
	<path vector-effect="non-scaling-stroke" class="st0" d="M270.7,136.1c0-74.4-60.3-134.8-134.8-134.8c0,0,0,0,0,0
		C61.5,1.3,1.1,61.7,1.1,136.1c0,0,0,0,0,0c0,74.4,60.3,134.8,134.8,134.8c0,0,0,0,0,0C210.3,270.9,270.7,210.5,270.7,136.1
		C270.7,136.1,270.7,136.1,270.7,136.1"/>
	<path vector-effect="non-scaling-stroke" class="st1" d="M166.8,186.5c16.8-18.2,29.7-37,38.1-60.4c3.8-10.7,6.6-19.4,4.8-29.5
		c-2.4-13.8-11.4-20.7-24.5-24.9c-9.6-3.1-18.9-5.3-27.8-6.8c-23.4-3.8-46.2,0.6-68.8,7.8c-16.4,5.3-24,21.4-20.3,37.9
		c6.5,29,21.8,55.3,42.7,76.2c0.1,0.1,0.1,0.3,0,0.5c-0.1,0.1-0.1,0.1-0.2,0.1H68c-0.8,0-1.5,0.7-1.5,1.5c0,0,0,0.1,0,0.1l0.3,5.6
		c0,0.5,0.5,0.9,1,0.9c17.3-0.2,34.6-0.2,51.9,0.2c0.1,0,0.2,0,0.2,0.1l17.5,13.8c0.3,0.2,0.8,0.3,1.1,0.1c6.4-3.2,12.6-9,17.8-13.4
		c0.7-0.6,1.5-0.9,2.4-0.9l50.9,0.1c0.3,0,0.5-0.2,0.5-0.5l0.3-6.3c0-0.7-0.5-1.2-1.2-1.3c0,0,0,0-0.1,0l-42.3-0.1
		C166.4,187.4,166.3,187.1,166.8,186.5"/>
	<path vector-effect="non-scaling-stroke" class="st1" d="M162.6,74.2c-16-3.7-32-3.6-48,0.1c-0.5,0.1-0.5,0.3-0.1,0.5
		c15.6,9.4,19,24.9,13.1,41.4c-0.1,0.4,0,0.9,0.3,1.1L138,126c0.4,0.3,1,0.3,1.4,0l10.2-8.6c0.3-0.2,0.4-0.5,0.2-0.9
		c-6.4-17.7-2.1-31.6,12.9-41.8c0.1-0.1,0.1-0.2,0.1-0.3C162.7,74.3,162.7,74.2,162.6,74.2"/>
	<path vector-effect="non-scaling-stroke" class="st1" d="M122.3,102.4c0-13-10.5-23.6-23.6-23.6c0,0,0,0,0,0
		c-13,0-23.6,10.5-23.6,23.6c0,0,0,0,0,0c0,13,10.5,23.6,23.6,23.6c0,0,0,0,0,0C111.8,126,122.3,115.4,122.3,102.4L122.3,102.4"/>
	<path vector-effect="non-scaling-stroke" class="st1" d="M201.9,102.4c0-13-10.6-23.6-23.6-23.6c0,0,0,0,0,0
		c-13,0-23.6,10.6-23.6,23.6s10.6,23.6,23.6,23.6S201.9,115.4,201.9,102.4L201.9,102.4"/>
	<path vector-effect="non-scaling-stroke" class="st1" d="M137.8,136.8l-14.2-12.3c-0.5-0.4-1.2-0.4-1.6,0
		c-3.8,3.5-8.1,6.2-12.8,8.1c-0.3,0.1-0.4,0.4-0.3,0.6c0,0.1,0.1,0.2,0.2,0.2c21.5,15.6,23.9,35.6,22.7,60.3c0,0.5,0.2,0.9,0.5,1.2
		l5.4,4.5c0.2,0.2,0.6,0.3,0.9,0.2c3-1,5.3-2.9,7-5.4c0.2-0.3,0.3-0.7,0.3-1.1c-0.6-10-0.7-17.1-0.1-21.5c2-16.2,9.7-28.9,22.9-38.3
		c0.4-0.3,0.4-0.5-0.1-0.7c-5-2-9.5-4.7-13.4-8.4c-0.3-0.3-0.8-0.3-1.2,0l-14.6,12.5C138.9,137.2,138.2,137.2,137.8,136.8"/>
	<path vector-effect="non-scaling-stroke" class="st1" d="M123.5,174.4c-1.7-21.2-16.9-38.2-38-41.4c-0.3-0.1-0.7,0.2-0.7,0.5
		c0,0.1,0,0.2,0,0.3c7.1,18.6,21.4,36.9,35.6,50.7c0.8,0.7,1.8,1.4,2.6,1.8c0.4,0.2,0.8,0.1,1-0.3c0.1-0.1,0.1-0.3,0.1-0.4
		C124,181.9,123.8,178.1,123.5,174.4"/>
	<path vector-effect="non-scaling-stroke" class="st1" d="M154.7,186.9c15.9-15.8,28.9-32.9,38.1-53.4c0.1-0.2,0-0.4-0.2-0.5
		c-0.1,0-0.1,0-0.2,0c-26.5,3.9-42.3,27.3-38.1,53.8c0,0.1,0.2,0.2,0.3,0.2C154.6,186.9,154.6,186.9,154.7,186.9"/>
	<path vector-effect="non-scaling-stroke" class="st1" d="M109.8,103.8c-8,2.3-13.5,1.6-21.7,0.1c-0.3-0.1-0.6,0.1-0.8,0.3
		c-1.2,1.8-3.7,6.8-0.7,7.6c8.6,2.4,16.9,2.4,25.1-0.2c1-0.3,1.5-1.4,1.2-2.3c0-0.1-0.1-0.2-0.1-0.2l-2.3-5
		C110.3,103.8,110,103.7,109.8,103.8"/>
	<path vector-effect="non-scaling-stroke" class="st1" d="M177.9,105.4c-3.2,0-7.1-1-10.7-1.3c-0.4,0-0.7,0.1-0.9,0.5l-1.8,4.5
		c-0.4,1,0.1,2.1,1.1,2.4c0,0,0.1,0,0.1,0.1c8.5,2.6,17,2.6,25.4-0.1c0.9-0.3,1.4-1.2,1.1-2.1c0,0,0-0.1,0-0.1l-1.8-4.6
		c-0.2-0.7-1-1-1.6-0.8C185.3,104.9,181.6,105.5,177.9,105.4"/>
</g>
<path class="st2" d="M270.7,136.1c0,74.4-60.3,134.8-134.8,134.8c0,0,0,0,0,0c-74.4,0-134.8-60.3-134.8-134.8c0,0,0,0,0,0
	C1.1,61.7,61.5,1.3,135.9,1.3c0,0,0,0,0,0C210.3,1.3,270.7,61.7,270.7,136.1C270.7,136.1,270.7,136.1,270.7,136.1z M166.8,186.5
	c16.8-18.2,29.7-37,38.1-60.4c3.8-10.7,6.6-19.4,4.8-29.5c-2.4-13.8-11.4-20.7-24.5-24.9c-9.6-3.1-18.9-5.3-27.8-6.8
	c-23.4-3.8-46.2,0.6-68.8,7.8c-16.4,5.3-24,21.4-20.3,37.9c6.5,29,21.8,55.3,42.7,76.2c0.1,0.1,0.1,0.3,0,0.5
	c-0.1,0.1-0.1,0.1-0.2,0.1H68c-0.8,0-1.5,0.7-1.5,1.5c0,0,0,0.1,0,0.1l0.3,5.6c0,0.5,0.5,0.9,1,0.9c17.3-0.2,34.6-0.2,51.9,0.2
	c0.1,0,0.2,0,0.2,0.1l17.5,13.8c0.3,0.2,0.8,0.3,1.1,0.1c6.4-3.2,12.6-9,17.8-13.4c0.7-0.6,1.5-0.9,2.4-0.9l50.9,0.1
	c0.3,0,0.5-0.2,0.5-0.5l0.3-6.3c0-0.7-0.5-1.2-1.2-1.3c0,0,0,0-0.1,0l-42.3-0.1C166.4,187.4,166.3,187.1,166.8,186.5z"/>
<path class="st3" d="M166.8,186.5c-0.5,0.5-0.4,0.8,0.3,0.8l42.3,0.1c0.7,0,1.2,0.5,1.2,1.2c0,0,0,0,0,0.1l-0.3,6.3
	c0,0.3-0.2,0.5-0.5,0.5l-50.9-0.1c-0.9,0-1.7,0.3-2.4,0.9c-5.2,4.4-11.4,10.2-17.8,13.4c-0.4,0.2-0.8,0.1-1.1-0.1L120,195.8
	c-0.1-0.1-0.2-0.1-0.2-0.1c-17.3-0.4-34.6-0.4-51.9-0.2c-0.5,0-1-0.4-1-0.9l-0.3-5.6c0-0.8,0.6-1.5,1.4-1.6c0,0,0.1,0,0.1,0h42.6
	c0.2,0,0.3-0.1,0.3-0.3c0-0.1,0-0.2-0.1-0.2c-20.9-20.9-36.1-47.2-42.7-76.2c-3.7-16.5,3.9-32.6,20.3-37.9
	c22.5-7.3,45.4-11.6,68.8-7.8c8.9,1.4,18.2,3.7,27.8,6.8c13.1,4.2,22.1,11.1,24.5,24.9c1.8,10-1,18.7-4.8,29.5
	C196.5,149.5,183.6,168.4,166.8,186.5z M162.6,74.2c-16-3.7-32-3.6-48,0.1c-0.5,0.1-0.5,0.3-0.1,0.5c15.6,9.4,19,24.9,13.1,41.4
	c-0.1,0.4,0,0.9,0.3,1.1L138,126c0.4,0.3,1,0.3,1.4,0l10.2-8.6c0.3-0.2,0.4-0.5,0.2-0.9c-6.4-17.7-2.1-31.6,12.9-41.8
	c0.1-0.1,0.1-0.2,0.1-0.3C162.7,74.3,162.7,74.2,162.6,74.2z M122.3,102.4c0-13-10.5-23.6-23.6-23.6c0,0,0,0,0,0
	c-13,0-23.6,10.5-23.6,23.6c0,0,0,0,0,0c0,13,10.5,23.6,23.6,23.6c0,0,0,0,0,0C111.8,126,122.3,115.4,122.3,102.4L122.3,102.4z
	 M201.9,102.4c0-13-10.6-23.6-23.6-23.6c0,0,0,0,0,0c-13,0-23.6,10.6-23.6,23.6s10.6,23.6,23.6,23.6S201.9,115.4,201.9,102.4
	L201.9,102.4z M137.8,136.8l-14.2-12.3c-0.5-0.4-1.2-0.4-1.6,0c-3.8,3.5-8.1,6.2-12.8,8.1c-0.3,0.1-0.4,0.4-0.3,0.6
	c0,0.1,0.1,0.2,0.2,0.2c21.5,15.6,23.9,35.6,22.7,60.3c0,0.5,0.2,0.9,0.5,1.2l5.4,4.5c0.2,0.2,0.6,0.3,0.9,0.2c3-1,5.3-2.9,7-5.4
	c0.2-0.3,0.3-0.7,0.3-1.1c-0.6-10-0.7-17.1-0.1-21.5c2-16.2,9.7-28.9,22.9-38.3c0.4-0.3,0.4-0.5-0.1-0.7c-5-2-9.5-4.7-13.4-8.4
	c-0.3-0.3-0.8-0.3-1.2,0l-14.6,12.5C138.9,137.2,138.2,137.2,137.8,136.8z M123.5,174.4c-1.7-21.2-16.9-38.2-38-41.4
	c-0.3-0.1-0.7,0.2-0.7,0.5c0,0.1,0,0.2,0,0.3c7.1,18.6,21.4,36.9,35.6,50.7c0.8,0.7,1.8,1.4,2.6,1.8c0.4,0.2,0.8,0.1,1-0.3
	c0.1-0.1,0.1-0.3,0.1-0.4C124,181.9,123.8,178.1,123.5,174.4z M154.7,186.9c15.9-15.8,28.9-32.9,38.1-53.4c0.1-0.2,0-0.4-0.2-0.5
	c-0.1,0-0.1,0-0.2,0c-26.5,3.9-42.3,27.3-38.1,53.8c0,0.1,0.2,0.2,0.3,0.2C154.6,186.9,154.6,186.9,154.7,186.9z"/>
<path class="st2" d="M162.6,74.2c0.1,0,0.2,0.1,0.2,0.3c0,0.1,0,0.1-0.1,0.1c-15,10.2-19.3,24.1-12.9,41.8c0.1,0.3,0.1,0.6-0.2,0.9
	l-10.2,8.6c-0.4,0.3-1,0.3-1.4,0l-10.1-8.5c-0.3-0.3-0.5-0.7-0.3-1.1c5.9-16.5,2.5-32-13.1-41.4c-0.4-0.2-0.4-0.4,0.1-0.5
	C130.6,70.6,146.6,70.6,162.6,74.2z"/>
<path class="st2" d="M122.3,102.4c0,13-10.5,23.6-23.6,23.6c0,0,0,0,0,0c-13,0-23.6-10.5-23.6-23.6c0,0,0,0,0,0
	c0-13,10.5-23.6,23.6-23.6c0,0,0,0,0,0C111.8,78.9,122.3,89.4,122.3,102.4L122.3,102.4z M109.8,103.8c-8,2.3-13.5,1.6-21.7,0.1
	c-0.3-0.1-0.6,0.1-0.8,0.3c-1.2,1.8-3.7,6.8-0.7,7.6c8.6,2.4,16.9,2.4,25.1-0.2c1-0.3,1.5-1.4,1.2-2.3c0-0.1-0.1-0.2-0.1-0.2l-2.3-5
	C110.3,103.8,110,103.7,109.8,103.8z"/>
<path class="st2" d="M201.9,102.4c0,13-10.6,23.6-23.6,23.6c0,0,0,0,0,0c-13,0-23.6-10.6-23.6-23.6s10.6-23.6,23.6-23.6
	C191.4,78.8,201.9,89.4,201.9,102.4L201.9,102.4z M177.9,105.4c-3.2,0-7.1-1-10.7-1.3c-0.4,0-0.7,0.1-0.9,0.5l-1.8,4.5
	c-0.4,1,0.1,2.1,1.1,2.4c0,0,0.1,0,0.1,0.1c8.5,2.6,17,2.6,25.4-0.1c0.9-0.3,1.4-1.2,1.1-2.1c0,0,0-0.1,0-0.1l-1.8-4.6
	c-0.2-0.7-1-1-1.6-0.8C185.3,104.9,181.6,105.5,177.9,105.4z"/>
<path class="st3" d="M88.1,103.9c8.2,1.5,13.6,2.2,21.7-0.1c0.3-0.1,0.6,0.1,0.7,0.3l2.3,5c0.4,0.9,0,2-0.9,2.5
	c-0.1,0-0.2,0.1-0.2,0.1c-8.2,2.5-16.6,2.6-25.1,0.2c-2.9-0.8-0.5-5.9,0.7-7.6C87.4,104,87.8,103.8,88.1,103.9z"/>
<path class="st3" d="M177.9,105.4c3.7,0,7.4-0.5,11-1.6c0.7-0.2,1.4,0.2,1.6,0.8l1.8,4.6c0.3,0.9-0.1,1.9-1,2.2c0,0-0.1,0-0.1,0
	c-8.5,2.6-16.9,2.7-25.4,0.1c-1-0.3-1.6-1.4-1.3-2.3c0,0,0-0.1,0.1-0.1l1.8-4.5c0.2-0.4,0.4-0.6,0.9-0.5
	C170.8,104.4,174.7,105.4,177.9,105.4z"/>
<path class="st2" d="M137.8,136.8c0.4,0.4,1.1,0.4,1.5,0l14.6-12.5c0.3-0.3,0.9-0.3,1.2,0c3.9,3.6,8.4,6.4,13.4,8.4
	c0.4,0.2,0.5,0.4,0.1,0.7c-13.2,9.3-20.9,22.1-22.9,38.3c-0.5,4.3-0.5,11.5,0.1,21.5c0,0.4-0.1,0.8-0.3,1.1c-1.7,2.6-4.1,4.4-7,5.4
	c-0.3,0.1-0.6,0-0.9-0.2l-5.4-4.5c-0.4-0.3-0.5-0.7-0.5-1.2c1.2-24.8-1.2-44.7-22.7-60.3c-0.2-0.2-0.3-0.5-0.1-0.7
	c0.1-0.1,0.1-0.1,0.2-0.2c4.8-1.9,9-4.6,12.8-8.1c0.5-0.4,1.2-0.4,1.6,0L137.8,136.8z"/>
<path class="st2" d="M85.5,133c21.1,3.2,36.2,20.2,38,41.4c0.3,3.7,0.5,7.5,0.6,11.3c0,0.4-0.3,0.8-0.7,0.8c-0.1,0-0.3,0-0.4-0.1
	c-0.8-0.5-1.9-1.1-2.6-1.8c-14.1-13.8-28.5-32.1-35.6-50.7c-0.1-0.3,0-0.7,0.4-0.8C85.3,133,85.4,132.9,85.5,133z"/>
<path class="st2" d="M192.8,133.5c-9.3,20.4-22.2,37.6-38.1,53.4c-0.1,0.1-0.3,0.1-0.4,0c0,0-0.1-0.1-0.1-0.1
	c-4.1-26.5,11.6-49.8,38.1-53.8c0.2,0,0.4,0.1,0.4,0.3C192.8,133.4,192.8,133.4,192.8,133.5z"/>
</svg>
