<?xml version="1.0" encoding="utf-8"?>
<!-- Generator: Adobe Illustrator 27.9.0, SVG Export Plug-In . SVG Version: 6.00 Build 0)  -->
<svg version="1.1" id="Warstwa_1" xmlns="http://www.w3.org/2000/svg" xmlns:xlink="http://www.w3.org/1999/xlink" x="0px" y="0px"
	 viewBox="0 0 275 275" style="enable-background:new 0 0 275 275;" xml:space="preserve">
<style type="text/css">
	.st0{fill:none;stroke:#8D7137;stroke-width:2;}
	.st1{fill:none;stroke:#7A6521;stroke-width:2;}
	.st2{fill:#F1C841;}
	.st3{fill:#020201;}
</style>
<g>
	<g>
		<path vector-effect="non-scaling-stroke" class="st0" d="M272.3,137.5C272.3,63.1,212,2.7,137.5,2.7l0,0
			C63.1,2.7,2.7,63.1,2.7,137.5l0,0c0,74.4,60.3,134.8,134.8,134.8l0,0C211.9,272.3,272.3,211.9,272.3,137.5L272.3,137.5"/>
		<path vector-effect="non-scaling-stroke" class="st1" d="M168.4,187.9c16.8-18.2,29.7-37,38.1-60.4c3.8-10.7,6.6-19.4,4.8-29.5
			c-2.4-13.8-11.4-20.7-24.5-24.9c-9.6-3.1-18.9-5.3-27.8-6.8c-23.4-3.8-46.2,0.6-68.8,7.8c-16.4,5.3-24,21.4-20.3,37.9
			c6.5,29,21.8,55.3,42.7,76.2c0.1,0.1,0.1,0.3,0,0.5c-0.1,0.1-0.1,0.1-0.2,0.1H69.6c-0.8,0-1.5,0.7-1.5,1.5v0.1l0.3,5.6
			c0,0.5,0.5,0.9,1,0.9c17.3-0.2,34.6-0.2,51.9,0.2c0.1,0,0.2,0,0.2,0.1L139,211c0.3,0.2,0.8,0.3,1.1,0.1c6.4-3.2,12.6-9,17.8-13.4
			c0.7-0.6,1.5-0.9,2.4-0.9l50.9,0.1c0.3,0,0.5-0.2,0.5-0.5l0.3-6.3c0-0.7-0.5-1.2-1.2-1.3c0,0,0,0-0.1,0l-42.3-0.1
			C168,188.8,167.9,188.5,168.4,187.9"/>
		<path vector-effect="non-scaling-stroke" class="st1" d="M164.2,75.6c-16-3.7-32-3.6-48,0.1c-0.5,0.1-0.5,0.3-0.1,0.5
			c15.6,9.4,19,24.9,13.1,41.4c-0.1,0.4,0,0.9,0.3,1.1l10.1,8.7c0.4,0.3,1,0.3,1.4,0l10.2-8.6c0.3-0.2,0.4-0.5,0.2-0.9
			c-6.4-17.7-2.1-31.6,12.9-41.8c0.1-0.1,0.1-0.2,0.1-0.3C164.3,75.7,164.3,75.6,164.2,75.6"/>
		<path vector-effect="non-scaling-stroke" class="st1" d="M123.9,103.8c0-13-10.5-23.6-23.6-23.6l0,0c-13,0-23.6,10.5-23.6,23.6
			l0,0c0,13,10.5,23.6,23.6,23.6l0,0C113.4,127.4,123.9,116.8,123.9,103.8L123.9,103.8"/>
		<path vector-effect="non-scaling-stroke" class="st1" d="M203.5,103.8c0-13-10.6-23.6-23.6-23.6l0,0c-13,0-23.6,10.6-23.6,23.6
			s10.6,23.6,23.6,23.6S203.5,116.8,203.5,103.8L203.5,103.8"/>
		<path vector-effect="non-scaling-stroke" class="st1" d="M139.4,138.2l-14.2-12.3c-0.5-0.4-1.2-0.4-1.6,0
			c-3.8,3.5-8.1,6.2-12.8,8.1c-0.3,0.1-0.4,0.4-0.3,0.6c0,0.1,0.1,0.2,0.2,0.2c21.5,15.6,23.9,35.6,22.7,60.3c0,0.5,0.2,0.9,0.5,1.2
			l5.4,4.5c0.2,0.2,0.6,0.3,0.9,0.2c3-1,5.3-2.9,7-5.4c0.2-0.3,0.3-0.7,0.3-1.1c-0.6-10-0.7-17.1-0.1-21.5
			c2-16.2,9.7-28.9,22.9-38.3c0.4-0.3,0.4-0.5-0.1-0.7c-5-2-9.5-4.7-13.4-8.4c-0.3-0.3-0.8-0.3-1.2,0L141,138.1
			C140.5,138.6,139.8,138.6,139.4,138.2"/>
		<path vector-effect="non-scaling-stroke" class="st1" d="M125.1,175.8c-1.7-21.2-16.9-38.2-38-41.4c-0.3-0.1-0.7,0.2-0.7,0.5
			c0,0.1,0,0.2,0,0.3c7.1,18.6,21.4,36.9,35.6,50.7c0.8,0.7,1.8,1.4,2.6,1.8c0.4,0.2,0.8,0.1,1-0.3c0.1-0.1,0.1-0.3,0.1-0.4
			C125.6,183.3,125.4,179.5,125.1,175.8"/>
		<path vector-effect="non-scaling-stroke" class="st1" d="M156.3,188.3c15.9-15.8,28.9-32.9,38.1-53.4c0.1-0.2,0-0.4-0.2-0.5
			c-0.1,0-0.1,0-0.2,0c-26.5,3.9-42.3,27.3-38.1,53.8c0,0.1,0.2,0.2,0.3,0.2C156.2,188.3,156.2,188.3,156.3,188.3"/>
		<path vector-effect="non-scaling-stroke" class="st1" d="M111.4,105.2c-8,2.3-13.5,1.6-21.7,0.1c-0.3-0.1-0.6,0.1-0.8,0.3
			c-1.2,1.8-3.7,6.8-0.7,7.6c8.6,2.4,16.9,2.4,25.1-0.2c1-0.3,1.5-1.4,1.2-2.3c0-0.1-0.1-0.2-0.1-0.2l-2.3-5
			C111.9,105.2,111.6,105.1,111.4,105.2"/>
		<path vector-effect="non-scaling-stroke" class="st1" d="M179.5,106.8c-3.2,0-7.1-1-10.7-1.3c-0.4,0-0.7,0.1-0.9,0.5l-1.8,4.5
			c-0.4,1,0.1,2.1,1.1,2.4c0,0,0.1,0,0.1,0.1c8.5,2.6,17,2.6,25.4-0.1c0.9-0.3,1.4-1.2,1.1-2.1v-0.1l-1.8-4.6c-0.2-0.7-1-1-1.6-0.8
			C186.9,106.3,183.2,106.9,179.5,106.8"/>
	</g>
	<path class="st2" d="M272.3,137.5c0,74.4-60.3,134.8-134.8,134.8l0,0C63.1,272.3,2.7,212,2.7,137.5l0,0
		C2.7,63.1,63.1,2.7,137.5,2.7l0,0C211.9,2.7,272.3,63.1,272.3,137.5L272.3,137.5z M168.4,187.9c16.8-18.2,29.7-37,38.1-60.4
		c3.8-10.7,6.6-19.4,4.8-29.5c-2.4-13.8-11.4-20.7-24.5-24.9c-9.6-3.1-18.9-5.3-27.8-6.8c-23.4-3.8-46.2,0.6-68.8,7.8
		c-16.4,5.3-24,21.4-20.3,37.9c6.5,29,21.8,55.3,42.7,76.2c0.1,0.1,0.1,0.3,0,0.5c-0.1,0.1-0.1,0.1-0.2,0.1H69.6
		c-0.8,0-1.5,0.7-1.5,1.5v0.1l0.3,5.6c0,0.5,0.5,0.9,1,0.9c17.3-0.2,34.6-0.2,51.9,0.2c0.1,0,0.2,0,0.2,0.1L139,211
		c0.3,0.2,0.8,0.3,1.1,0.1c6.4-3.2,12.6-9,17.8-13.4c0.7-0.6,1.5-0.9,2.4-0.9l50.9,0.1c0.3,0,0.5-0.2,0.5-0.5l0.3-6.3
		c0-0.7-0.5-1.2-1.2-1.3c0,0,0,0-0.1,0l-42.3-0.1C168,188.8,167.9,188.5,168.4,187.9z"/>
	<path class="st3" d="M168.4,187.9c-0.5,0.5-0.4,0.8,0.3,0.8l42.3,0.1c0.7,0,1.2,0.5,1.2,1.2c0,0,0,0,0,0.1l-0.3,6.3
		c0,0.3-0.2,0.5-0.5,0.5l-50.9-0.1c-0.9,0-1.7,0.3-2.4,0.9c-5.2,4.4-11.4,10.2-17.8,13.4c-0.4,0.2-0.8,0.1-1.1-0.1l-17.6-13.8
		c-0.1-0.1-0.2-0.1-0.2-0.1c-17.3-0.4-34.6-0.4-51.9-0.2c-0.5,0-1-0.4-1-0.9l-0.3-5.6c0-0.8,0.6-1.5,1.4-1.6h0.1h42.6
		c0.2,0,0.3-0.1,0.3-0.3c0-0.1,0-0.2-0.1-0.2c-20.9-20.9-36.1-47.2-42.7-76.2c-3.7-16.5,3.9-32.6,20.3-37.9
		c22.5-7.3,45.4-11.6,68.8-7.8c8.9,1.4,18.2,3.7,27.8,6.8c13.1,4.2,22.1,11.1,24.5,24.9c1.8,10-1,18.7-4.8,29.5
		C198.1,150.9,185.2,169.8,168.4,187.9z M164.2,75.6c-16-3.7-32-3.6-48,0.1c-0.5,0.1-0.5,0.3-0.1,0.5c15.6,9.4,19,24.9,13.1,41.4
		c-0.1,0.4,0,0.9,0.3,1.1l10.1,8.7c0.4,0.3,1,0.3,1.4,0l10.2-8.6c0.3-0.2,0.4-0.5,0.2-0.9c-6.4-17.7-2.1-31.6,12.9-41.8
		c0.1-0.1,0.1-0.2,0.1-0.3C164.3,75.7,164.3,75.6,164.2,75.6z M123.9,103.8c0-13-10.5-23.6-23.6-23.6l0,0c-13,0-23.6,10.5-23.6,23.6
		l0,0c0,13,10.5,23.6,23.6,23.6l0,0C113.4,127.4,123.9,116.8,123.9,103.8L123.9,103.8z M203.5,103.8c0-13-10.6-23.6-23.6-23.6l0,0
		c-13,0-23.6,10.6-23.6,23.6s10.6,23.6,23.6,23.6S203.5,116.8,203.5,103.8L203.5,103.8z M139.4,138.2l-14.2-12.3
		c-0.5-0.4-1.2-0.4-1.6,0c-3.8,3.5-8.1,6.2-12.8,8.1c-0.3,0.1-0.4,0.4-0.3,0.6c0,0.1,0.1,0.2,0.2,0.2c21.5,15.6,23.9,35.6,22.7,60.3
		c0,0.5,0.2,0.9,0.5,1.2l5.4,4.5c0.2,0.2,0.6,0.3,0.9,0.2c3-1,5.3-2.9,7-5.4c0.2-0.3,0.3-0.7,0.3-1.1c-0.6-10-0.7-17.1-0.1-21.5
		c2-16.2,9.7-28.9,22.9-38.3c0.4-0.3,0.4-0.5-0.1-0.7c-5-2-9.5-4.7-13.4-8.4c-0.3-0.3-0.8-0.3-1.2,0L141,138.1
		C140.5,138.6,139.8,138.6,139.4,138.2z M125.1,175.8c-1.7-21.2-16.9-38.2-38-41.4c-0.3-0.1-0.7,0.2-0.7,0.5c0,0.1,0,0.2,0,0.3
		c7.1,18.6,21.4,36.9,35.6,50.7c0.8,0.7,1.8,1.4,2.6,1.8c0.4,0.2,0.8,0.1,1-0.3c0.1-0.1,0.1-0.3,0.1-0.4
		C125.6,183.3,125.4,179.5,125.1,175.8z M156.3,188.3c15.9-15.8,28.9-32.9,38.1-53.4c0.1-0.2,0-0.4-0.2-0.5c-0.1,0-0.1,0-0.2,0
		c-26.5,3.9-42.3,27.3-38.1,53.8c0,0.1,0.2,0.2,0.3,0.2C156.2,188.3,156.2,188.3,156.3,188.3z"/>
	<path class="st2" d="M164.2,75.6c0.1,0,0.2,0.1,0.2,0.3c0,0.1,0,0.1-0.1,0.1c-15,10.2-19.3,24.1-12.9,41.8c0.1,0.3,0.1,0.6-0.2,0.9
		l-10.2,8.6c-0.4,0.3-1,0.3-1.4,0l-10.1-8.5c-0.3-0.3-0.5-0.7-0.3-1.1c5.9-16.5,2.5-32-13.1-41.4c-0.4-0.2-0.4-0.4,0.1-0.5
		C132.2,72,148.2,72,164.2,75.6z"/>
	<path class="st2" d="M123.9,103.8c0,13-10.5,23.6-23.6,23.6l0,0c-13,0-23.6-10.5-23.6-23.6l0,0c0-13,10.5-23.6,23.6-23.6l0,0
		C113.4,80.3,123.9,90.8,123.9,103.8L123.9,103.8z M111.4,105.2c-8,2.3-13.5,1.6-21.7,0.1c-0.3-0.1-0.6,0.1-0.8,0.3
		c-1.2,1.8-3.7,6.8-0.7,7.6c8.6,2.4,16.9,2.4,25.1-0.2c1-0.3,1.5-1.4,1.2-2.3c0-0.1-0.1-0.2-0.1-0.2l-2.3-5
		C111.9,105.2,111.6,105.1,111.4,105.2z"/>
	<path class="st2" d="M203.5,103.8c0,13-10.6,23.6-23.6,23.6l0,0c-13,0-23.6-10.6-23.6-23.6s10.6-23.6,23.6-23.6
		C193,80.2,203.5,90.8,203.5,103.8L203.5,103.8z M179.5,106.8c-3.2,0-7.1-1-10.7-1.3c-0.4,0-0.7,0.1-0.9,0.5l-1.8,4.5
		c-0.4,1,0.1,2.1,1.1,2.4c0,0,0.1,0,0.1,0.1c8.5,2.6,17,2.6,25.4-0.1c0.9-0.3,1.4-1.2,1.1-2.1v-0.1l-1.8-4.6c-0.2-0.7-1-1-1.6-0.8
		C186.9,106.3,183.2,106.9,179.5,106.8z"/>
	<path class="st3" d="M89.7,105.3c8.2,1.5,13.6,2.2,21.7-0.1c0.3-0.1,0.6,0.1,0.7,0.3l2.3,5c0.4,0.9,0,2-0.9,2.5
		c-0.1,0-0.2,0.1-0.2,0.1c-8.2,2.5-16.6,2.6-25.1,0.2c-2.9-0.8-0.5-5.9,0.7-7.6C89,105.4,89.4,105.2,89.7,105.3z"/>
	<path class="st3" d="M179.5,106.8c3.7,0,7.4-0.5,11-1.6c0.7-0.2,1.4,0.2,1.6,0.8l1.8,4.6c0.3,0.9-0.1,1.9-1,2.2h-0.1
		c-8.5,2.6-16.9,2.7-25.4,0.1c-1-0.3-1.6-1.4-1.3-2.3c0,0,0-0.1,0.1-0.1l1.8-4.5c0.2-0.4,0.4-0.6,0.9-0.5
		C172.4,105.8,176.3,106.8,179.5,106.8z"/>
	<path class="st2" d="M139.4,138.2c0.4,0.4,1.1,0.4,1.5,0l14.6-12.5c0.3-0.3,0.9-0.3,1.2,0c3.9,3.6,8.4,6.4,13.4,8.4
		c0.4,0.2,0.5,0.4,0.1,0.7c-13.2,9.3-20.9,22.1-22.9,38.3c-0.5,4.3-0.5,11.5,0.1,21.5c0,0.4-0.1,0.8-0.3,1.1c-1.7,2.6-4.1,4.4-7,5.4
		c-0.3,0.1-0.6,0-0.9-0.2l-5.4-4.5c-0.4-0.3-0.5-0.7-0.5-1.2c1.2-24.8-1.2-44.7-22.7-60.3c-0.2-0.2-0.3-0.5-0.1-0.7
		c0.1-0.1,0.1-0.1,0.2-0.2c4.8-1.9,9-4.6,12.8-8.1c0.5-0.4,1.2-0.4,1.6,0L139.4,138.2z"/>
	<path class="st2" d="M87.1,134.4c21.1,3.2,36.2,20.2,38,41.4c0.3,3.7,0.5,7.5,0.6,11.3c0,0.4-0.3,0.8-0.7,0.8c-0.1,0-0.3,0-0.4-0.1
		c-0.8-0.5-1.9-1.1-2.6-1.8c-14.1-13.8-28.5-32.1-35.6-50.7c-0.1-0.3,0-0.7,0.4-0.8C86.9,134.4,87,134.3,87.1,134.4z"/>
	<path class="st2" d="M194.4,134.9c-9.3,20.4-22.2,37.6-38.1,53.4c-0.1,0.1-0.3,0.1-0.4,0l-0.1-0.1c-4.1-26.5,11.6-49.8,38.1-53.8
		c0.2,0,0.4,0.1,0.4,0.3C194.4,134.8,194.4,134.8,194.4,134.9z"/>
</g>
</svg>
