<?xml version="1.0" encoding="utf-8"?>
<!-- Generator: Adobe Illustrator 27.9.0, SVG Export Plug-In . SVG Version: 6.00 Build 0)  -->
<svg width="80" height="80" version="1.1" id="Warstwa_1" xmlns="http://www.w3.org/2000/svg" xmlns:xlink="http://www.w3.org/1999/xlink" x="0px" y="0px"
	 viewBox="0 0 80 80" style="enable-background:new 0 0 80 80;" xml:space="preserve">
<style type="text/css">
	.st0{fill:#51346B;}
	.st1{fill:#FFD204;}
</style>
<circle class="st0" cx="40" cy="40" r="40"/>
<g>
	<g>
		<path class="st1" d="M21.8,62.3c-9.6-1.1-15.5-4.9-17.1-10.7c-0.9-3.4,0.2-7.9,2.9-11.9c7.1-10.6,22.9-19.2,39.5-21.6
			c3.8-0.5,10.6-0.5,13.7,0c9.3,1.6,14.8,6.4,14.8,12.9c0,4.5-2.3,9.1-6.8,13.8c-8.1,8.4-21.6,15-35.1,17
			C31.4,62.2,23.5,62.5,21.8,62.3L21.8,62.3z M26.3,45c0.4-1.3,1.8-6.7,2-7.6c0.2-0.8,0.2-0.9,0.9-0.9c0.7,0,0.8,0,0.8,0.8
			c0,0.4,0.1,2.4,0.3,4.5l0.3,3.8l0.8,0.1l0.8,0.1l2.2-4.6l2.2-4.6h0.8h0.8l-0.2,1.2c-0.1,0.6-0.4,2.7-0.7,4.6L37,45.7l2.6-0.1
			l2.6-0.1l0.3-1.5c0.2-0.8,0.5-2.2,0.7-3.1l0.4-1.7h1.9c2.3,0,3.8-0.4,5-1.4c0.5-0.5,1.1-0.7,1.6-0.7c0.6,0,0.7,0.1,0.7,0.8
			c0,0.4-0.2,1-0.3,1.3c-0.5,0.8-0.4,0.8,0.5,1c0.8,0.1,0.8,0.1,0.8-0.7c0-0.4,0.4-1.5,0.8-2.5c0.8-1.6,0.9-1.7,1.6-1.7
			c0.9,0,1,0.2,1,3v2.3l-1.4-0.2l-1.4-0.1l0.7,0.5c1.1,0.6,2.1,2.1,2.4,3.6l0.3,1.2h1c0.8,0,1-0.1,0.9-0.4c-0.1-0.2-0.5-3-0.9-6.2
			l-0.8-5.8h-1.1h-1.1L55,34.7c-0.7,1.3-0.8,1.4-1.5,1.4h-0.8l0.1-1.8c0.1-1.6,0.1-1.9-0.4-2.6c-1-1.5-1.7-1.7-5.5-1.7h-3.3
			l-1.3,6.1c-0.7,3.3-1.4,6.8-1.6,7.6c-0.3,1.5-0.3,1.5-1.1,1.5H39V44c0-0.7,0.2-3.1,0.5-5.5c0.6-5.8,0.7-5.3-0.9-5.3h-1.3l-2.1,4.4
			c-2,4.3-2,4.4-2.7,4.4h-0.7l-0.1-2.9c-0.1-1.6-0.2-3.6-0.3-4.4l-0.1-1.4l-1.4,0.1l-1.4,0.1L26.6,39c-2.3,7.4-2.2,6.6-1.3,6.6
			C26,45.7,26.1,45.6,26.3,45L26.3,45z M50.9,44.2c0.8-1.5,0.8-1.9,0-1.6c-0.4,0.1-2.1,2.6-2.1,3c0,0,0.3,0.1,0.7,0.1
			C50.1,45.7,50.2,45.5,50.9,44.2L50.9,44.2z M63.3,45.2c0.1-0.3,0.3-1.6,0.6-2.8l0.5-2.3l2.2-2.7c1.2-1.5,2.5-3,2.7-3.4l0.5-0.7H69
			c-0.9,0-0.9,0-2.6,2.6c-1.6,2.5-1.7,2.6-2.5,2.6l-0.8,0L62.4,36l-0.6-2.6h-1c-0.8,0-1,0.1-0.9,0.3c0.1,0.2,0.7,1.8,1.3,3.6
			l1.2,3.3L62,42.6c-0.2,1.1-0.5,2.3-0.5,2.6c-0.1,0.5,0,0.5,0.8,0.5C63.1,45.7,63.2,45.6,63.3,45.2L63.3,45.2z"/>
		<path class="st1" d="M44.2,36.9c0-0.5,0.2-2,0.5-3.3l0.5-2.3l2.1-0.1c2-0.1,2.2,0,2.7,0.5c0.5,0.5,0.6,0.8,0.6,2
			c0,1.9-0.6,3.3-1.7,3.7c-0.5,0.2-1.6,0.3-2.8,0.3h-1.9L44.2,36.9z"/>
	</g>
	<g>
		<path class="st0" d="M23.4,46.3c0,0,1-3.1,2.2-6.8l2.1-6.8l2.1-0.1l2.1-0.1l0.1,1.7c0.1,0.9,0.2,2.9,0.3,4.4l0.2,2.7l2-4.4
			l2.1-4.4h2.1c1.2,0,2.1,0,2.1,0.1s-0.3,2.5-0.6,5.5s-0.6,5.7-0.5,6c0,0.4,0.5-1.9,2.9-12.9l0.4-1.9h4c4.5,0,5.1,0.2,6.1,1.7
			c0.5,0.7,0.5,1,0.5,2.6c0,1,0,1.8,0,1.8c0,0,0.4-0.6,0.8-1.4l0.7-1.4h3.7h3.7l0.6,2.6c0.3,1.4,0.7,2.6,0.8,2.6
			c0.1,0,0.9-1.2,1.8-2.6l1.7-2.6h2c1.1,0,2,0.1,2,0.2c0,0.1-0.6,1-1.4,1.9c-5.2,6.2-4.9,5.9-5.5,8.4c-0.3,1.2-0.5,2.5-0.6,2.8
			c-0.1,0.5-0.2,0.5-3.6,0.5h-3.5l-0.3-1.2c-0.3-1.4-1.3-2.9-2.4-3.6c-1.6-1-4-0.7-6.9,0.7c-0.8,0.4-1.3,0.6-1.2,0.5
			c0.1-0.1,1.2-0.8,2.4-1.4c2-1,2.2-1.2,2.8-2.3l0.7-1.2l-0.9,0.7c-1.2,1-2.7,1.4-5,1.4h-1.9l-0.4,1.7c-0.2,0.9-0.5,2.3-0.7,3.1
			l-0.3,1.5l-3.4,0.1l-3.4,0.1v-0.5c0-0.3,0.3-2.4,0.6-4.6c0.4-2.2,0.6-4.1,0.6-4.1c0,0-1.1,2.1-2.3,4.6l-2.2,4.6l-1.5-0.1l-1.5-0.1
			l-0.3-3.8c-0.1-2.1-0.3-4.1-0.3-4.6l0-0.8l-0.2,0.8c-0.1,0.4-0.6,2.2-1,3.9c-0.4,1.7-0.9,3.4-1,3.8l-0.3,0.7h-1.7
			C24.1,46.4,23.4,46.4,23.4,46.3L23.4,46.3z M61,43.3c0.3-1.6,0.5-2.7,0.4-3c-0.1-0.3-0.7-1.9-1.4-3.7c-0.7-1.8-1.2-3.2-1.3-3.2
			s0.3,2.7,0.7,6c0.4,3.3,0.8,6.1,0.8,6.3C60.2,46.4,60.5,45.6,61,43.3z M56.4,38.3c0-2.4-0.2-2.5-1.2-0.5c-0.5,1-0.8,1.8-0.8,1.8
			c0,0,0.4,0.1,0.9,0.2c0.5,0,0.9,0.1,1,0.1C56.3,39.9,56.4,39.2,56.4,38.3z M48.2,36.9c1.5-0.6,2.2-3.3,1.1-4.4
			c-0.5-0.5-0.7-0.6-2-0.5l-1.4,0.1l-0.5,2.3c-0.3,1.3-0.5,2.4-0.5,2.6C44.9,37.3,47.2,37.3,48.2,36.9z"/>
		<path class="st0" d="M48.4,44.4c0.6-1.1,1.3-2.2,1.5-2.3c0.4-0.3,2.6-0.3,2.9,0c0.1,0.1-0.3,1.1-0.9,2.2l-1.1,2.1H49h-1.8
			L48.4,44.4z"/>
	</g>
</g>
</svg>
