<?xml version="1.0" encoding="utf-8"?>
<!-- Generator: Adobe Illustrator 27.9.0, SVG Export Plug-In . SVG Version: 6.00 Build 0)  -->
<svg width="80" height="80" version="1.1" id="Warstwa_1" xmlns="http://www.w3.org/2000/svg" xmlns:xlink="http://www.w3.org/1999/xlink" x="0px" y="0px"
	 viewBox="0 0 80 80" style="enable-background:new 0 0 80 80;" xml:space="preserve">
<style type="text/css">
	.st0{fill:#FFFFFF;}
	.st1{fill:#253B80;}
	.st2{fill:#179BD7;}
	.st3{fill:#222D65;}
</style>
<circle class="st0" cx="40" cy="40" r="40"/>
<g>
	<path class="st1" d="M31.7,35.5H28c-0.2,0-0.5,0.2-0.5,0.4L26,45.3c0,0.2,0.1,0.4,0.3,0.4h1.7c0.2,0,0.5-0.2,0.5-0.4l0.4-2.5
		c0-0.2,0.3-0.4,0.5-0.4h1.2c2.4,0,3.8-1.2,4.2-3.5c0.2-1,0-1.8-0.5-2.4C33.8,35.9,32.9,35.5,31.7,35.5z M32.1,39
		c-0.2,1.3-1.2,1.3-2.2,1.3h-0.6l0.4-2.4c0-0.1,0.2-0.3,0.3-0.3h0.3c0.7,0,1.3,0,1.6,0.4C32.1,38.2,32.2,38.5,32.1,39z"/>
	<path class="st1" d="M42.6,38.9h-1.7c-0.1,0-0.3,0.1-0.3,0.3l-0.1,0.5l-0.1-0.2c-0.4-0.5-1.2-0.7-2.1-0.7c-1.9,0-3.6,1.5-3.9,3.5
		c-0.2,1,0.1,2,0.7,2.7c0.5,0.6,1.3,0.9,2.2,0.9c1.6,0,2.4-1,2.4-1l-0.1,0.5c0,0.2,0.1,0.4,0.3,0.4h1.6c0.3,0,0.5-0.2,0.5-0.4l0.9-6
		C42.9,39.1,42.8,38.9,42.6,38.9z M40.2,42.3c-0.2,1-1,1.7-2,1.7c-0.5,0-0.9-0.2-1.2-0.5c-0.3-0.3-0.4-0.7-0.3-1.2
		c0.2-1,1-1.7,2-1.7c0.5,0,0.9,0.2,1.2,0.5C40.1,41.4,40.2,41.8,40.2,42.3z"/>
	<path class="st1" d="M51.9,38.9h-1.8c-0.2,0-0.3,0.1-0.4,0.2l-2.4,3.6l-1-3.4c-0.1-0.2-0.3-0.4-0.5-0.4h-1.7
		c-0.2,0-0.4,0.2-0.3,0.4l1.9,5.7l-1.8,2.6c-0.1,0.2,0,0.5,0.2,0.5h1.8c0.2,0,0.3-0.1,0.4-0.2l5.8-8.4
		C52.3,39.2,52.2,38.9,51.9,38.9z"/>
	<path class="st2" d="M57.7,35.5h-3.7c-0.2,0-0.5,0.2-0.5,0.4l-1.5,9.4c0,0.2,0.1,0.4,0.3,0.4h1.9c0.2,0,0.3-0.1,0.4-0.3l0.4-2.7
		c0-0.2,0.3-0.4,0.5-0.4h1.2c2.4,0,3.8-1.2,4.2-3.5c0.2-1,0-1.8-0.5-2.4C59.9,35.9,59,35.5,57.7,35.5z M58.2,39
		C58,40.3,57,40.3,56,40.3h-0.6l0.4-2.4c0-0.1,0.2-0.3,0.3-0.3h0.3c0.7,0,1.3,0,1.6,0.4C58.2,38.2,58.2,38.5,58.2,39z"/>
	<path class="st2" d="M68.7,38.9h-1.7c-0.2,0-0.3,0.1-0.3,0.3l-0.1,0.5l-0.1-0.2c-0.4-0.5-1.2-0.7-2.1-0.7c-1.9,0-3.6,1.5-3.9,3.5
		c-0.2,1,0.1,2,0.7,2.7c0.5,0.6,1.3,0.9,2.2,0.9c1.6,0,2.4-1,2.4-1l-0.1,0.5c0,0.2,0.1,0.4,0.3,0.4h1.6c0.2,0,0.5-0.2,0.5-0.4l0.9-6
		C69,39.1,68.8,38.9,68.7,38.9z M66.2,42.3c-0.2,1-1,1.7-2,1.7c-0.5,0-0.9-0.2-1.2-0.5c-0.3-0.3-0.4-0.7-0.3-1.2c0.2-1,1-1.7,2-1.7
		c0.5,0,0.9,0.2,1.2,0.5C66.2,41.4,66.3,41.8,66.2,42.3z"/>
	<path class="st2" d="M70.7,35.8l-1.5,9.5c0,0.2,0.1,0.4,0.3,0.4H71c0.3,0,0.5-0.2,0.5-0.4l1.5-9.4c0-0.2-0.1-0.4-0.3-0.4H71
		C70.9,35.5,70.7,35.7,70.7,35.8z"/>
	<path class="st1" d="M10.9,47.5l0.3-1.8l-0.6,0h-3l2.1-13.1c0,0,0-0.1,0.1-0.1c0,0,0.1,0,0.1,0h5c1.7,0,2.8,0.3,3.4,1
		c0.3,0.3,0.5,0.7,0.5,1c0.1,0.4,0.1,0.8,0,1.4l0,0v0.4l0.3,0.2c0.2,0.1,0.4,0.3,0.6,0.4c0.2,0.3,0.4,0.6,0.5,1
		c0.1,0.4,0,0.9-0.1,1.5c-0.1,0.7-0.3,1.2-0.6,1.7c-0.3,0.4-0.6,0.8-1,1.1c-0.4,0.3-0.8,0.5-1.3,0.6c-0.5,0.1-1,0.2-1.6,0.2h-0.4
		c-0.3,0-0.5,0.1-0.8,0.3c-0.2,0.2-0.4,0.4-0.4,0.7l0,0.2l-0.5,3.1l0,0.1c0,0,0,0.1,0,0.1c0,0,0,0-0.1,0
		C13.3,47.5,10.9,47.5,10.9,47.5z"/>
	<path class="st2" d="M19.3,36L19.3,36L19.3,36c0,0.1,0,0.2-0.1,0.3c-0.7,3.4-2.9,4.6-5.8,4.6H12c-0.4,0-0.7,0.3-0.7,0.6l0,0l0,0
		l-0.8,4.8l-0.2,1.4c0,0.2,0.1,0.4,0.4,0.4h2.6c0.3,0,0.6-0.2,0.6-0.5l0-0.1l0.5-3.1l0-0.2c0-0.3,0.3-0.5,0.6-0.5h0.4
		c2.5,0,4.5-1,5.1-4c0.2-1.2,0.1-2.3-0.5-3C19.8,36.4,19.6,36.2,19.3,36z"/>
	<path class="st3" d="M18.6,35.8c-0.1,0-0.2-0.1-0.3-0.1c-0.1,0-0.2,0-0.3-0.1c-0.4-0.1-0.8-0.1-1.3-0.1h-3.9c-0.1,0-0.2,0-0.3,0.1
		c-0.2,0.1-0.3,0.3-0.3,0.5l-0.8,5.3l0,0.2c0.1-0.3,0.4-0.6,0.7-0.6h1.5c2.9,0,5.1-1.2,5.8-4.6c0-0.1,0-0.2,0.1-0.3
		c-0.2-0.1-0.3-0.2-0.5-0.2C18.7,35.8,18.7,35.8,18.6,35.8z"/>
	<path class="st1" d="M12.1,36.1c0-0.2,0.2-0.4,0.3-0.5c0.1,0,0.2-0.1,0.3-0.1h3.9c0.5,0,0.9,0,1.3,0.1c0.1,0,0.2,0,0.3,0.1
		c0.1,0,0.2,0.1,0.3,0.1c0.1,0,0.1,0,0.1,0c0.2,0.1,0.4,0.1,0.5,0.2c0.2-1.3,0-2.1-0.7-2.9c-0.7-0.9-2.1-1.2-3.8-1.2h-5
		c-0.4,0-0.7,0.3-0.7,0.6L7,45.8c0,0.3,0.2,0.5,0.4,0.5h3.1l0.8-4.9L12.1,36.1z"/>
</g>
</svg>
