<?xml version="1.0" encoding="utf-8"?>
<!-- Generator: Adobe Illustrator 27.9.0, SVG Export Plug-In . SVG Version: 6.00 Build 0)  -->
<svg width="80" height="80" version="1.1" id="Warstwa_1" xmlns="http://www.w3.org/2000/svg" xmlns:xlink="http://www.w3.org/1999/xlink" x="0px" y="0px"
	 viewBox="0 0 80 80" style="enable-background:new 0 0 80 80;" xml:space="preserve">
<style type="text/css">
	.st0{fill:#F4943D;}
	.st1{fill:#FFFFFF;}
	.st2{fill:#E50616;}
</style>
<circle class="st0" cx="40" cy="40" r="40"/>
<g>
	<path class="st1" d="M13.8,37.3c0-9.1,9.8-13.8,16.8-8.2c0.2,0.1,0.2,0.4,0.1,0.5L29.1,33c-0.1,0.1-0.2,0.2-0.4,0.1
		c0,0-0.1,0-0.1-0.1c-2.8-3.3-7.8-3-9.8,0.6c-0.6,1-0.8,2.6-0.8,4.8c0,4.9,0,9.7,0,14.6c0,0.2-0.1,0.3-0.3,0.3h-3.4
		c-0.2,0-0.3-0.1-0.3-0.3C13.8,47.8,13.8,42.5,13.8,37.3z"/>
	<path class="st1" d="M46.8,29.2c0.1,0.1,0.2,0.3,0.1,0.4l-1.6,3.3c-0.1,0.2-0.2,0.2-0.4,0.1c-3.3-3.1-6.5-3.1-9.7,0
		c-0.1,0.1-0.2,0.2-0.4,0.2l-3.7,0c-0.2,0-0.4-0.2-0.4-0.4c0-0.1,0-0.1,0-0.2C34.4,26,40.9,25.1,46.8,29.2z"/>
	<path class="st1" d="M51.9,40.9c2.9,2.7,7.6,2.2,9.5-1.4c4.5-8.4-11.2-14.1-11.3-1.2c0,4.8,0,9.6,0,14.5c0,0.2-0.2,0.4-0.4,0.4h0
		h-3.2c-0.2,0-0.3-0.1-0.3-0.3c0-5.5,0-11,0-16.5c0-5.1,4.6-9.8,9.9-9.7c8.2,0.1,13.2,9.2,8.2,16c-2.8,3.7-8,5.1-12.3,3.1
		c-0.2-0.1-0.3-0.2-0.3-0.4l-0.1-4.2c0-0.1,0.1-0.2,0.2-0.2C51.8,40.9,51.8,40.9,51.9,40.9z"/>
	<path class="st1" d="M24.2,34.6h15.5c0.2,0,0.4,0.2,0.4,0.4v3.4c0,0.2-0.2,0.4-0.4,0.4H24.2c-0.2,0-0.4-0.2-0.4-0.4V35
		C23.9,34.8,24,34.6,24.2,34.6z"/>
	<path class="st2" d="M36.1,41.1c2.4,2,5.6,1.9,8.1-0.1c0.2-0.2,0.4-0.1,0.4,0.2v4c0,0.3-0.2,0.6-0.5,0.7c-6,1.8-10.4,0-13.3-5.4
		c-0.1-0.1,0-0.3,0.1-0.4c0,0,0.1,0,0.1,0C32.8,39.8,34.5,39.8,36.1,41.1z"/>
	<path class="st1" d="M19.9,41.1c2.8,2.2,6.4,2.1,8.8-0.7c0.1-0.1,0.3-0.1,0.4,0c0,0,0,0,0.1,0.1l1.7,3.3c0.1,0.2,0,0.4-0.1,0.5
		c-2.9,2.3-6.2,3-10,1.9c-1.7-0.5-1.3-3.6-1.1-4.9C19.5,41,19.6,40.9,19.9,41.1z"/>
</g>
</svg>
