<?xml version="1.0" encoding="utf-8"?>
<!-- Generator: Adobe Illustrator 27.9.0, SVG Export Plug-In . SVG Version: 6.00 Build 0)  -->
<svg version="1.1" id="Warstwa_1" xmlns="http://www.w3.org/2000/svg" xmlns:xlink="http://www.w3.org/1999/xlink" x="0px" y="0px" width="80" height="80"
	 viewBox="0 0 80 80" style="enable-background:new 0 0 80 80;" xml:space="preserve">
<style type="text/css">
	.st0{fill:#FFFFFF;}
	.st1{fill-rule:evenodd;clip-rule:evenodd;fill:#D13239;}
	.st2{fill:#D13239;}
	.st3{fill-rule:evenodd;clip-rule:evenodd;fill:#B3B2B1;}
</style>
<circle class="st0" cx="40" cy="40" r="40"/>
<g>
	<polygon class="st1" points="21.3,41.7 26.6,41.6 26.5,42.9 22,47.1 25.7,47.1 25.5,48.4 20,48.4 20.3,47 24.5,43 21.1,43 	"/>
	<path class="st1" d="M15.6,39.6c-0.1-0.1-0.3-0.2-0.5-0.3c-0.2-0.1-0.4-0.1-0.6-0.2c-0.3,0-0.5-0.1-0.7-0.1c-0.2,0-0.3,0-0.3,0
		h-2.3H9.4l-1.5,9.3h1.4l0.6-3.5l2.8,0c0,0,1.1,0,1.9-0.4c0.8-0.4,1-1.3,1-1.3s0.1-0.3,0.2-0.8c0.1-0.5,0.2-1,0.2-1.3
		c0-0.1,0-0.2,0-0.2s0-0.1,0-0.2c0-0.2,0-0.5-0.2-0.8C15.7,39.8,15.6,39.7,15.6,39.6z M14.4,41.2c0,0-0.1,0.8-0.3,1.7
		c-0.1,0.3-0.3,0.5-0.6,0.6c-0.5,0.1-1,0.1-1,0.1l-2.3,0l0.5-3.1l2.1,0c0,0,0.1,0,0.3,0c0.2,0,0.5,0,0.8,0c0.2,0,0.4,0.1,0.4,0.1
		c0.1,0.1,0.1,0.2,0.1,0.3C14.5,41.1,14.4,41.2,14.4,41.2z"/>
	<polygon class="st1" points="33.8,39.1 35.2,39.1 33.7,48.4 32.3,48.4 	"/>
	<polygon class="st1" points="41.2,41.7 42.6,41.6 43.1,46.4 45.1,41.6 46.7,41.6 47.2,46.4 49.3,41.6 50.7,41.6 47.7,48.4 
		46.1,48.4 45.6,43.7 43.5,48.4 41.9,48.4 	"/>
	<g>
		<path class="st2" d="M31.3,41.7c-0.4-0.1-1.1-0.2-1.6-0.1c-0.6,0-0.8,0-1,0.1c0,0-1,0.1-1.5,0.8c-0.6,0.7-0.7,2.2-0.7,2.2
			s-0.3,1.7-0.2,2.2c0.1,0.6,0.3,1.1,0.9,1.3c0.6,0.2,1.2,0.2,1.2,0.2s1.1,0.1,2-0.1s1.3-0.8,1.3-0.8s0.2-0.3,0.3-0.6
			c0.1-0.3,0.2-0.5,0.2-0.5l0.1-0.4l-1.4,0c0,0-0.1,1-0.9,1c-0.8,0.1-1.2,0.1-1.3,0c-0.1,0-1,0-0.9-0.7c0,0,0,0,0,0
			c0-0.8,0.1-1,0.1-1l4.5,0l0.2-1.1C32.6,43.1,32.4,42.1,31.3,41.7z M31,44.2l-3.1,0l0.1-0.5c0,0,0.1-0.4,0.3-0.5
			c0.2-0.2,0.5-0.2,0.7-0.2c0.3,0,0.9-0.1,1.5,0c0.2,0,0.4,0.1,0.4,0.3C31.1,43.6,31,44.2,31,44.2z"/>
		<path class="st2" d="M27.5,46.5C27.5,46.5,27.5,46.5,27.5,46.5C27.5,46.5,27.5,46.5,27.5,46.5z"/>
	</g>
	<g>
		<path class="st2" d="M36.1,46.5C36.1,46.5,36.1,46.5,36.1,46.5C36.1,46.6,36.1,46.5,36.1,46.5z"/>
		<path class="st2" d="M39.8,41.7c-0.4-0.1-1.1-0.2-1.6-0.1c-0.6,0-0.8,0-1,0.1c0,0-1,0.1-1.5,0.8c-0.6,0.7-0.7,2.2-0.7,2.2
			s-0.3,1.7-0.2,2.2c0.1,0.6,0.3,1.1,0.9,1.3c0.6,0.2,1.2,0.2,1.2,0.2s1.1,0.1,2-0.1s1.3-0.8,1.3-0.8s0.2-0.3,0.3-0.6
			c0.1-0.3,0.2-0.5,0.2-0.5l0.1-0.4l-1.4,0c0,0-0.1,1-0.9,1c-0.8,0.1-1.2,0.1-1.3,0.1c-0.1,0-1,0-0.9-0.7c0,0,0,0,0,0
			c0-0.8,0.1-1,0.1-1l4.5,0l0.2-1.1C41.1,43.1,41,42.1,39.8,41.7z M39.5,44.2l-3.1,0l0.1-0.5c0,0,0.1-0.4,0.3-0.5
			c0.2-0.2,0.5-0.2,0.7-0.2s0.9-0.1,1.5,0c0.2,0,0.4,0.1,0.4,0.3C39.6,43.6,39.5,44.2,39.5,44.2z"/>
	</g>
	<path class="st1" d="M52.3,41.7l0.9,4.9l2.5-4.9l1.4,0l-3.6,7c0,0-0.7,1.3-1.1,1.6c-0.4,0.3-0.7,0.5-1,0.5s-0.5,0.1-0.8,0l-0.3-0.1
		l0.2-1.3c0,0,0.6,0.1,0.9,0c0.3-0.1,0.6-0.7,0.6-0.7l0.2-0.3l-1.3-6.8L52.3,41.7L52.3,41.7z"/>
	<path class="st3" d="M57.6,42.3l1.5,0l0.1-0.6c0,0,0.2-1,0.5-1.2c0.1-0.1,0.3-0.1,0.5-0.2c0.4-0.1,0.9-0.1,1.3-0.1
		c0.6,0,0.8,0,1.5,0.1c0.6,0.1,0.5,0.7,0.5,0.7L63.2,42c0,0-0.1,0.4-0.2,0.6c-0.1,0.2-0.5,0.4-0.7,0.4c-0.5,0.2-2.1,0.6-2.1,0.6
		L58.9,44c0,0-0.8,0.2-1.2,0.7c-0.4,0.5-0.6,1.1-0.7,1.3c-0.1,0.3-0.4,2.3-0.4,2.3l7,0l0.2-1.4l-5.5,0l0.1-0.6c0,0,0.1-0.6,0.3-0.8
		c0.1-0.1,0.1-0.1,0.6-0.3c0.3-0.1,1.2-0.3,1.2-0.3l2.1-0.6c0,0,1.1-0.3,1.6-0.9c0.4-0.6,0.6-1.8,0.6-1.8s0.1-1.2,0-1.5
		c-0.1-0.4-0.4-0.8-0.9-1c-0.4-0.2-0.9-0.3-2.1-0.3s-1.9,0.1-2.5,0.3c-0.6,0.2-1,0.7-1.2,1.3C57.7,41.1,57.6,42.3,57.6,42.3
		L57.6,42.3z"/>
	<path class="st3" d="M70.7,44.9l1-5.9H70l-5.4,5.8l-0.2,1.5h4.7l-0.3,2.1l1.5,0l0.3-2.1l1.3,0l0.2-1.4L70.7,44.9z M69.3,44.9
		l-3.1,0l3.7-4L69.3,44.9z"/>
	<path class="st3" d="M18.6,39.8h4.4c0,0,1-0.8,1.7-1.3s2-1.3,2-1.3L24.3,36c0,0-2.1,1.3-3,1.9C20.4,38.5,18.6,39.8,18.6,39.8
		L18.6,39.8z"/>
	<path class="st3" d="M28.2,36.3l-2.1-1.4c0,0,1.9-1.1,4.4-2c2.5-1,3.8-1.4,3.8-1.4l0.4,2c0,0-2.4,0.8-3.8,1.4
		C29.5,35.5,28.2,36.3,28.2,36.3L28.2,36.3z"/>
	<path class="st3" d="M36.2,33l-0.4-2c0,0,2.5-0.7,4.9-1.1c2.3-0.4,5.4-0.6,5.4-0.6l-1,3.1c0,0-2.7-0.4-5.3,0
		C37.9,32.6,36.2,33,36.2,33L36.2,33z"/>
	<path class="st3" d="M46.8,32.6l1.7-3.5c0,0,3.8-0.1,7,0.4c3.3,0.5,6.2,1.3,6.2,1.3l-8.2,4.3c0,0-1.9-1.2-4.3-2
		C47.7,32.9,46.8,32.6,46.8,32.6L46.8,32.6z"/>
	<path class="st3" d="M54.9,36.2l1.8,1.4h14.9c0,0,0-0.5-0.4-1.2C70.9,36,70.5,35.5,70,35c-0.2-0.2-0.9-0.7-1.4-1
		c-1.3-0.9-2-1.2-3.4-1.8L54.9,36.2L54.9,36.2z"/>
	<path class="st2" d="M19.6,41.6c-0.6,0-1.1,0.2-1.5,0.5l0.1-0.5h-1.5l-1.2,6.7h1.5l0.7-3.7c0.1-0.8,0.7-1.7,1.8-1.7l0.8,0l0.2-1.3
		H19.6z"/>
</g>
</svg>
