<svg width="80" height="80" viewBox="0 0 40 40" fill="none" xmlns="http://www.w3.org/2000/svg">
<circle cx="20" cy="20" r="20" fill="black"/>
<path d="M34.0001 20.0215C34.0001 18.0255 33.0353 16.4619 31.1945 16.4619C29.3427 16.4619 28.2227 18.0366 28.2227 20.0104C28.2227 22.3502 29.5423 23.5368 31.4385 23.5368C32.3589 23.5368 33.0686 23.3261 33.5898 23.0267V21.4742C33.0575 21.7403 32.4587 21.9067 31.6825 21.9067C30.9284 21.9067 30.2631 21.6405 30.1744 20.7201H33.9779C33.989 20.6092 34.0001 20.21 34.0001 20.0215ZM30.1633 19.2786C30.1633 18.4025 30.6955 18.0366 31.1945 18.0366C31.6714 18.0366 32.1704 18.4025 32.1704 19.2786H30.1633Z" fill="#6772E5"/>
<path d="M25.2177 16.4619C24.4526 16.4619 23.9646 16.8168 23.6985 17.0718L23.5987 16.595H21.8799V25.6659L23.8205 25.2556L23.8316 23.0488C24.1088 23.2485 24.5191 23.5368 25.2066 23.5368C26.6038 23.5368 27.868 22.4168 27.868 19.955C27.868 17.6817 26.5817 16.4619 25.2177 16.4619ZM24.752 21.818C24.2973 21.818 24.0201 21.6516 23.8316 21.452L23.8205 18.5688C24.0201 18.3471 24.2973 18.1918 24.7409 18.1918C25.4506 18.1918 25.9385 18.9902 25.9385 19.9993C25.9496 21.0417 25.4727 21.818 24.752 21.818Z" fill="#6772E5"/>
<path d="M21.1587 15.5747V14L19.207 14.4103V15.996L21.1587 15.5747Z" fill="#6772E5"/>
<path d="M21.1587 16.5835H19.207V23.3922H21.1587V16.5835Z" fill="#6772E5"/>
<path d="M17.1112 17.1605L16.9893 16.5839H15.3037V23.3926H17.2443V18.7795C17.699 18.1807 18.4863 18.2916 18.7192 18.3803V16.5949C18.4863 16.4951 17.577 16.3288 17.1112 17.1605Z" fill="#6772E5"/>
<path d="M13.2306 14.8984L11.3343 15.2976L11.3232 21.5294C11.3232 22.6827 12.1882 23.5254 13.3415 23.5254C13.9846 23.5254 14.4504 23.4034 14.7054 23.2704V21.6958C14.4615 21.7956 13.2306 22.1504 13.2306 21.0083V18.2472H14.7054V16.595H13.2306V14.8984Z" fill="#6772E5"/>
<path d="M7.96277 18.5688C7.96277 18.2694 8.20673 18.1475 8.62811 18.1475C9.21584 18.1475 9.96989 18.3249 10.5576 18.6465V16.8168C9.91444 16.5617 9.27128 16.4619 8.62811 16.4619C7.05346 16.4619 6 17.2825 6 18.6686C6 20.8199 8.96079 20.4762 8.96079 21.3966C8.96079 21.7514 8.6503 21.8734 8.21782 21.8734C7.57465 21.8734 6.74296 21.6073 6.09979 21.2524V23.1043C6.82058 23.4148 7.55248 23.5479 8.21782 23.5479C9.83683 23.5479 10.9457 22.7494 10.9457 21.3522C10.9346 19.0235 7.96277 19.4338 7.96277 18.5688Z" fill="#6772E5"/>
</svg>
